%
M48
M72
T01C0.0240
T02C0.0320
T03C0.0400
%
T01
X11804Y3772
X15802Y4342
X17945Y4953
X17052Y5592
X22352Y5642
X24352Y4992
X28352Y4992
X28852Y4992
X29002Y3742
X25071Y2158
X18052Y2492
X24678Y10189
X9402Y11961
T02
X19079Y13292
X20079Y13292
X21079Y13292
X22079Y13292
X23079Y13292
X24079Y13292
X27579Y2292
X28579Y2292
T03
X2307Y4134
X3307Y4134
X17748Y9166
X18748Y9166
X18938Y11331
X20078Y11331
X15721Y13000
X13161Y13000
X13161Y14780
X15721Y14780
X25761Y14583
X25861Y13583
X25761Y12583
X23456Y2382
X22316Y2382
M30
