G75*
%MOIN*%
%OFA0B0*%
%FSLAX25Y25*%
%IPPOS*%
%LPD*%
%AMOC8*
5,1,8,0,0,1.08239X$1,22.5*
%
%ADD10R,0.08400X0.15800*%
%ADD11R,0.03200X0.09500*%
%ADD12R,0.04343X0.06706*%
%ADD13R,0.06706X0.04343*%
%ADD14R,0.24422X0.24422*%
%ADD15R,0.07887X0.07493*%
%ADD16C,0.08200*%
%ADD17C,0.08200*%
%ADD18R,0.07898X0.07099*%
%ADD19R,0.07099X0.07898*%
%ADD20R,0.03950X0.05524*%
%ADD21R,0.05600X0.09600*%
%ADD22R,0.14973X0.09461*%
%ADD23R,0.12611X0.06312*%
%ADD24R,0.05524X0.03950*%
%ADD25R,0.02600X0.05400*%
%ADD26OC8,0.07400*%
%ADD27C,0.08674*%
%ADD28C,0.04800*%
D10*
X0028547Y0060476D03*
X0063980Y0060476D03*
X0064177Y0113390D03*
X0028547Y0113626D03*
D11*
X0174945Y0076564D03*
X0179945Y0076564D03*
X0184945Y0076564D03*
X0189945Y0076564D03*
X0189945Y0055964D03*
X0184945Y0055964D03*
X0179945Y0055964D03*
X0174945Y0055964D03*
D12*
X0238862Y0043469D03*
X0243862Y0043469D03*
X0248862Y0043469D03*
X0253862Y0043469D03*
X0258862Y0043469D03*
X0263862Y0043469D03*
X0268862Y0043469D03*
X0273862Y0043469D03*
X0278862Y0043469D03*
X0283862Y0043469D03*
X0288862Y0043469D03*
X0293862Y0043469D03*
X0298862Y0043469D03*
X0303862Y0043469D03*
X0303862Y0114335D03*
X0298862Y0114335D03*
X0293862Y0114335D03*
X0288862Y0114335D03*
X0283862Y0114335D03*
X0278862Y0114335D03*
X0273862Y0114335D03*
X0268862Y0114335D03*
X0263862Y0114335D03*
X0258862Y0114335D03*
X0253862Y0114335D03*
X0248862Y0114335D03*
X0243862Y0114335D03*
X0238862Y0114335D03*
D13*
X0232996Y0101402D03*
X0232996Y0096402D03*
X0232996Y0091402D03*
X0232996Y0086402D03*
X0232996Y0081402D03*
X0232996Y0076402D03*
X0232996Y0071402D03*
X0232996Y0066402D03*
X0232996Y0061402D03*
X0232996Y0056402D03*
D14*
X0273547Y0078902D03*
D15*
X0060909Y0042366D03*
X0044768Y0042366D03*
D16*
X0033075Y0045043D02*
X0033075Y0037643D01*
X0023075Y0037643D02*
X0023075Y0045043D01*
X0177484Y0087957D02*
X0177484Y0095357D01*
X0187484Y0095357D02*
X0187484Y0087957D01*
D17*
X0189383Y0113311D03*
X0200783Y0113311D03*
X0157213Y0130002D03*
X0131613Y0130002D03*
X0131613Y0147802D03*
X0157213Y0147802D03*
X0257614Y0145831D03*
X0258614Y0135831D03*
X0257614Y0125831D03*
X0234562Y0023823D03*
X0223162Y0023823D03*
D18*
X0071264Y0030311D03*
X0071264Y0041508D03*
D19*
X0076232Y0128154D03*
X0065035Y0128154D03*
D20*
X0192839Y0145201D03*
X0199925Y0145201D03*
X0212130Y0145594D03*
X0219217Y0145594D03*
X0232209Y0145201D03*
X0239295Y0145201D03*
X0293232Y0130240D03*
X0300319Y0130240D03*
X0300240Y0122248D03*
X0293154Y0122248D03*
X0195594Y0024728D03*
X0188508Y0024728D03*
X0175909Y0024728D03*
X0168823Y0024728D03*
X0261736Y0022760D03*
X0268823Y0022760D03*
D21*
X0126584Y0085166D03*
X0117484Y0085166D03*
X0108384Y0085166D03*
D22*
X0117484Y0109567D03*
D23*
X0124728Y0061343D03*
X0108980Y0061343D03*
X0090083Y0061343D03*
X0143626Y0061343D03*
D24*
X0162524Y0038508D03*
X0162524Y0031421D03*
X0182209Y0031421D03*
X0182209Y0038508D03*
X0178665Y0105437D03*
X0178665Y0112524D03*
D25*
X0171579Y0039846D03*
X0174179Y0032446D03*
X0168979Y0032446D03*
X0188664Y0032446D03*
X0193864Y0032446D03*
X0191264Y0039846D03*
D26*
X0275791Y0022917D03*
X0285791Y0022917D03*
X0240791Y0132917D03*
X0230791Y0132917D03*
X0220791Y0132917D03*
X0210791Y0132917D03*
X0200791Y0132917D03*
X0190791Y0132917D03*
D27*
X0297563Y0141264D03*
X0217642Y0060555D03*
X0199925Y0049925D03*
X0153862Y0050319D03*
X0080240Y0077484D03*
X0297169Y0026303D03*
D28*
X0290024Y0037417D03*
X0288524Y0049917D03*
X0283524Y0049917D03*
X0243524Y0049917D03*
X0223524Y0056417D03*
X0179453Y0049531D03*
X0170524Y0055917D03*
X0158024Y0043417D03*
X0180524Y0024917D03*
X0118035Y0037720D03*
X0250713Y0021579D03*
X0246776Y0101894D03*
X0094020Y0119610D03*
M02*
