G75*
%MOIN*%
%OFA0B0*%
%FSLAX25Y25*%
%IPPOS*%
%LPD*%
%AMOC8*
5,1,8,0,0,1.08239X$1,22.5*
%
%ADD10R,0.07600X0.15000*%
%ADD11R,0.02400X0.08700*%
%ADD12R,0.03543X0.05906*%
%ADD13R,0.05906X0.03543*%
%ADD14R,0.23622X0.23622*%
%ADD15R,0.07087X0.06693*%
%ADD16C,0.07400*%
%ADD17C,0.07400*%
%ADD18R,0.07098X0.06299*%
%ADD19R,0.06299X0.07098*%
%ADD20R,0.03150X0.04724*%
%ADD21R,0.04800X0.08800*%
%ADD22R,0.14173X0.08661*%
%ADD23R,0.11811X0.05512*%
%ADD24R,0.04724X0.03150*%
%ADD25R,0.01800X0.04600*%
%ADD26OC8,0.06600*%
%ADD27C,0.07874*%
%ADD28C,0.01600*%
%ADD29C,0.04000*%
%ADD30C,0.02500*%
%ADD31C,0.01000*%
D10*
X0028547Y0060476D03*
X0063980Y0060476D03*
X0064177Y0113390D03*
X0028547Y0113626D03*
D11*
X0174945Y0076564D03*
X0179945Y0076564D03*
X0184945Y0076564D03*
X0189945Y0076564D03*
X0189945Y0055964D03*
X0184945Y0055964D03*
X0179945Y0055964D03*
X0174945Y0055964D03*
D12*
X0238862Y0043469D03*
X0243862Y0043469D03*
X0248862Y0043469D03*
X0253862Y0043469D03*
X0258862Y0043469D03*
X0263862Y0043469D03*
X0268862Y0043469D03*
X0273862Y0043469D03*
X0278862Y0043469D03*
X0283862Y0043469D03*
X0288862Y0043469D03*
X0293862Y0043469D03*
X0298862Y0043469D03*
X0303862Y0043469D03*
X0303862Y0114335D03*
X0298862Y0114335D03*
X0293862Y0114335D03*
X0288862Y0114335D03*
X0283862Y0114335D03*
X0278862Y0114335D03*
X0273862Y0114335D03*
X0268862Y0114335D03*
X0263862Y0114335D03*
X0258862Y0114335D03*
X0253862Y0114335D03*
X0248862Y0114335D03*
X0243862Y0114335D03*
X0238862Y0114335D03*
D13*
X0232996Y0101402D03*
X0232996Y0096402D03*
X0232996Y0091402D03*
X0232996Y0086402D03*
X0232996Y0081402D03*
X0232996Y0076402D03*
X0232996Y0071402D03*
X0232996Y0066402D03*
X0232996Y0061402D03*
X0232996Y0056402D03*
D14*
X0273547Y0078902D03*
D15*
X0060909Y0042366D03*
X0044768Y0042366D03*
D16*
X0033075Y0045043D02*
X0033075Y0037643D01*
X0023075Y0037643D02*
X0023075Y0045043D01*
X0177484Y0087957D02*
X0177484Y0095357D01*
X0187484Y0095357D02*
X0187484Y0087957D01*
D17*
X0189383Y0113311D03*
X0200783Y0113311D03*
X0157213Y0130002D03*
X0131613Y0130002D03*
X0131613Y0147802D03*
X0157213Y0147802D03*
X0257614Y0145831D03*
X0258614Y0135831D03*
X0257614Y0125831D03*
X0234562Y0023823D03*
X0223162Y0023823D03*
D18*
X0071264Y0030311D03*
X0071264Y0041508D03*
D19*
X0076232Y0128154D03*
X0065035Y0128154D03*
D20*
X0192839Y0145201D03*
X0199925Y0145201D03*
X0212130Y0145594D03*
X0219217Y0145594D03*
X0232209Y0145201D03*
X0239295Y0145201D03*
X0293232Y0130240D03*
X0300319Y0130240D03*
X0300240Y0122248D03*
X0293154Y0122248D03*
X0195594Y0024728D03*
X0188508Y0024728D03*
X0175909Y0024728D03*
X0168823Y0024728D03*
X0261736Y0022760D03*
X0268823Y0022760D03*
D21*
X0126584Y0085166D03*
X0117484Y0085166D03*
X0108384Y0085166D03*
D22*
X0117484Y0109567D03*
D23*
X0124728Y0061343D03*
X0108980Y0061343D03*
X0090083Y0061343D03*
X0143626Y0061343D03*
D24*
X0162524Y0038508D03*
X0162524Y0031421D03*
X0182209Y0031421D03*
X0182209Y0038508D03*
X0178665Y0105437D03*
X0178665Y0112524D03*
D25*
X0171579Y0039846D03*
X0174179Y0032446D03*
X0168979Y0032446D03*
X0188664Y0032446D03*
X0193864Y0032446D03*
X0191264Y0039846D03*
D26*
X0275791Y0022917D03*
X0285791Y0022917D03*
X0240791Y0132917D03*
X0230791Y0132917D03*
X0220791Y0132917D03*
X0210791Y0132917D03*
X0200791Y0132917D03*
X0190791Y0132917D03*
D27*
X0297563Y0141264D03*
X0217642Y0060555D03*
X0199925Y0049925D03*
X0153862Y0050319D03*
X0080240Y0077484D03*
X0297169Y0026303D03*
D28*
X0028905Y0015848D02*
X0024482Y0017977D01*
X0020644Y0021038D01*
X0017584Y0024876D01*
X0017584Y0024876D01*
X0015454Y0029299D01*
X0014361Y0034085D01*
X0014224Y0036539D01*
X0014224Y0132996D01*
X0014361Y0135451D01*
X0015454Y0140236D01*
X0017584Y0144659D01*
X0020644Y0148497D01*
X0024482Y0151558D01*
X0028905Y0153688D01*
X0033691Y0154780D01*
X0036146Y0154918D01*
X0306199Y0154918D01*
X0306199Y0140055D01*
X0304251Y0142003D01*
X0303300Y0142397D01*
X0303300Y0142405D01*
X0302427Y0144514D01*
X0300813Y0146127D01*
X0298704Y0147001D01*
X0296422Y0147001D01*
X0294313Y0146127D01*
X0292699Y0144514D01*
X0291826Y0142405D01*
X0291826Y0140123D01*
X0292699Y0138014D01*
X0294313Y0136400D01*
X0296422Y0135527D01*
X0298704Y0135527D01*
X0300813Y0136400D01*
X0300820Y0136407D01*
X0300917Y0136367D01*
X0301260Y0136367D01*
X0302474Y0135154D01*
X0302474Y0134310D01*
X0302131Y0134402D01*
X0300319Y0134402D01*
X0300319Y0130240D01*
X0296944Y0130240D01*
X0296944Y0127641D01*
X0297067Y0127183D01*
X0297304Y0126773D01*
X0297639Y0126438D01*
X0297834Y0126325D01*
X0296865Y0125356D01*
X0296865Y0119470D01*
X0296707Y0119087D01*
X0296475Y0119087D01*
X0296528Y0119140D01*
X0296528Y0125356D01*
X0295679Y0126205D01*
X0296607Y0127132D01*
X0296607Y0133348D01*
X0295553Y0134402D01*
X0290912Y0134402D01*
X0289857Y0133348D01*
X0289857Y0127132D01*
X0290706Y0126283D01*
X0289779Y0125356D01*
X0289779Y0119140D01*
X0289832Y0119087D01*
X0246324Y0119087D01*
X0246324Y0124370D01*
X0243324Y0127370D01*
X0243324Y0128237D01*
X0245891Y0130805D01*
X0245891Y0135030D01*
X0242904Y0138017D01*
X0238679Y0138017D01*
X0235791Y0135130D01*
X0235640Y0135281D01*
X0241324Y0140965D01*
X0241324Y0141039D01*
X0241616Y0141039D01*
X0242670Y0142093D01*
X0242670Y0148309D01*
X0241616Y0149363D01*
X0236975Y0149363D01*
X0235920Y0148309D01*
X0235920Y0142093D01*
X0235934Y0142080D01*
X0231871Y0138017D01*
X0228679Y0138017D01*
X0225791Y0135130D01*
X0222904Y0138017D01*
X0218679Y0138017D01*
X0215791Y0135130D01*
X0215640Y0135281D01*
X0221324Y0140965D01*
X0221324Y0141432D01*
X0221537Y0141432D01*
X0222591Y0142487D01*
X0222591Y0148702D01*
X0221537Y0149757D01*
X0216896Y0149757D01*
X0215842Y0148702D01*
X0215842Y0142487D01*
X0216091Y0142237D01*
X0211871Y0138017D01*
X0208679Y0138017D01*
X0205791Y0135130D01*
X0202904Y0138017D01*
X0198679Y0138017D01*
X0195791Y0135130D01*
X0194390Y0136531D01*
X0195324Y0137465D01*
X0195324Y0141203D01*
X0196213Y0142093D01*
X0196213Y0148309D01*
X0195159Y0149363D01*
X0190518Y0149363D01*
X0189464Y0148309D01*
X0189464Y0142093D01*
X0190518Y0141039D01*
X0190724Y0141039D01*
X0190724Y0139370D01*
X0189571Y0138217D01*
X0189371Y0138017D01*
X0188679Y0138017D01*
X0185691Y0135030D01*
X0185691Y0130805D01*
X0188679Y0127817D01*
X0192904Y0127817D01*
X0195791Y0130705D01*
X0198679Y0127817D01*
X0199371Y0127817D01*
X0199571Y0127617D01*
X0206724Y0120465D01*
X0206724Y0113465D01*
X0208071Y0112117D01*
X0226071Y0094117D01*
X0228243Y0094117D01*
X0228243Y0053884D01*
X0229298Y0052830D01*
X0232123Y0052830D01*
X0200260Y0020967D01*
X0198917Y0020967D01*
X0197796Y0020503D01*
X0197760Y0020467D01*
X0186887Y0020467D01*
X0186986Y0020566D01*
X0190828Y0020566D01*
X0191883Y0021621D01*
X0191883Y0027836D01*
X0190964Y0028755D01*
X0190964Y0029000D01*
X0191264Y0029300D01*
X0192218Y0028346D01*
X0192729Y0028346D01*
X0192220Y0027836D01*
X0192220Y0021621D01*
X0193274Y0020566D01*
X0197915Y0020566D01*
X0198969Y0021621D01*
X0198969Y0027836D01*
X0197915Y0028891D01*
X0197824Y0028891D01*
X0197824Y0029870D01*
X0197576Y0030117D01*
X0197976Y0030117D01*
X0213976Y0046117D01*
X0215324Y0047465D01*
X0215324Y0052465D01*
X0217677Y0054818D01*
X0218783Y0054818D01*
X0219884Y0055274D01*
X0220302Y0054265D01*
X0221371Y0053196D01*
X0222768Y0052617D01*
X0224279Y0052617D01*
X0225676Y0053196D01*
X0226745Y0054265D01*
X0227324Y0055661D01*
X0227324Y0057173D01*
X0226745Y0058570D01*
X0225676Y0059639D01*
X0224279Y0060217D01*
X0223379Y0060217D01*
X0223379Y0061696D01*
X0222505Y0063805D01*
X0220891Y0065419D01*
X0218783Y0066292D01*
X0216501Y0066292D01*
X0214392Y0065419D01*
X0212778Y0063805D01*
X0211905Y0061696D01*
X0211905Y0059414D01*
X0212778Y0057305D01*
X0213219Y0056865D01*
X0210724Y0054370D01*
X0210724Y0049370D01*
X0196564Y0035210D01*
X0196564Y0035491D01*
X0195509Y0036546D01*
X0193709Y0036546D01*
X0193964Y0036800D01*
X0193964Y0037617D01*
X0193976Y0037617D01*
X0200476Y0044117D01*
X0200547Y0044188D01*
X0201066Y0044188D01*
X0203175Y0045062D01*
X0204789Y0046675D01*
X0205662Y0048784D01*
X0205662Y0051066D01*
X0204789Y0053175D01*
X0203175Y0054789D01*
X0201066Y0055662D01*
X0198784Y0055662D01*
X0196675Y0054789D01*
X0196540Y0054653D01*
X0192976Y0058217D01*
X0192945Y0058217D01*
X0192945Y0061059D01*
X0191890Y0062114D01*
X0187999Y0062114D01*
X0187445Y0061559D01*
X0186890Y0062114D01*
X0182999Y0062114D01*
X0182445Y0061559D01*
X0182250Y0061754D01*
X0181840Y0061991D01*
X0181382Y0062114D01*
X0179945Y0062114D01*
X0179945Y0055964D01*
X0179945Y0055964D01*
X0179945Y0062114D01*
X0178508Y0062114D01*
X0178050Y0061991D01*
X0177640Y0061754D01*
X0177445Y0061559D01*
X0176890Y0062114D01*
X0172999Y0062114D01*
X0171945Y0061059D01*
X0171945Y0059442D01*
X0171279Y0059717D01*
X0169768Y0059717D01*
X0169074Y0059430D01*
X0169074Y0060024D01*
X0168609Y0061145D01*
X0133109Y0096645D01*
X0132251Y0097503D01*
X0131130Y0097967D01*
X0111917Y0097967D01*
X0110796Y0097503D01*
X0106796Y0093503D01*
X0105938Y0092645D01*
X0105474Y0091524D01*
X0105474Y0091366D01*
X0105239Y0091366D01*
X0104184Y0090312D01*
X0104184Y0088467D01*
X0100417Y0088467D01*
X0099296Y0088003D01*
X0097524Y0086231D01*
X0069777Y0113977D01*
X0069777Y0121635D01*
X0068723Y0122690D01*
X0068074Y0122690D01*
X0068074Y0122804D01*
X0068931Y0122804D01*
X0069985Y0123859D01*
X0069985Y0132448D01*
X0068931Y0133503D01*
X0061140Y0133503D01*
X0060086Y0132448D01*
X0060086Y0123859D01*
X0061140Y0122804D01*
X0061974Y0122804D01*
X0061974Y0122690D01*
X0059632Y0122690D01*
X0058577Y0121635D01*
X0058577Y0105144D01*
X0059632Y0104090D01*
X0068723Y0104090D01*
X0069777Y0105144D01*
X0069777Y0105350D01*
X0093210Y0081917D01*
X0086774Y0075481D01*
X0085958Y0076296D01*
X0085977Y0076343D01*
X0085977Y0078625D01*
X0085104Y0080734D01*
X0083490Y0082348D01*
X0081381Y0083221D01*
X0079099Y0083221D01*
X0076990Y0082348D01*
X0075377Y0080734D01*
X0074503Y0078625D01*
X0074503Y0076343D01*
X0075377Y0074234D01*
X0076990Y0072621D01*
X0079099Y0071747D01*
X0081381Y0071747D01*
X0081734Y0071893D01*
X0083474Y0070154D01*
X0083474Y0065898D01*
X0083432Y0065898D01*
X0082377Y0064844D01*
X0082377Y0057841D01*
X0083432Y0056787D01*
X0096734Y0056787D01*
X0097788Y0057841D01*
X0097788Y0064844D01*
X0096734Y0065898D01*
X0090356Y0065898D01*
X0089574Y0066681D01*
X0089574Y0069626D01*
X0089757Y0069837D01*
X0099251Y0079332D01*
X0099251Y0079332D01*
X0100109Y0080190D01*
X0102287Y0082367D01*
X0104184Y0082367D01*
X0104184Y0080021D01*
X0105239Y0078966D01*
X0111530Y0078966D01*
X0112584Y0080021D01*
X0112584Y0090312D01*
X0112408Y0090488D01*
X0113787Y0091867D01*
X0129260Y0091867D01*
X0162974Y0058154D01*
X0162974Y0048912D01*
X0162938Y0048806D01*
X0162974Y0048309D01*
X0162974Y0048181D01*
X0160804Y0046011D01*
X0160176Y0046639D01*
X0158786Y0047215D01*
X0159599Y0049178D01*
X0159599Y0051460D01*
X0158726Y0053569D01*
X0157112Y0055182D01*
X0155003Y0056056D01*
X0152721Y0056056D01*
X0150612Y0055182D01*
X0148999Y0053569D01*
X0148125Y0051460D01*
X0148125Y0049178D01*
X0148999Y0047069D01*
X0150612Y0045455D01*
X0152721Y0044582D01*
X0153106Y0044582D01*
X0154224Y0043465D01*
X0154224Y0043370D01*
X0153724Y0042870D01*
X0153724Y0033531D01*
X0148074Y0039181D01*
X0148074Y0056787D01*
X0150277Y0056787D01*
X0151331Y0057841D01*
X0151331Y0064844D01*
X0150277Y0065898D01*
X0145074Y0065898D01*
X0145074Y0066024D01*
X0144609Y0067145D01*
X0143751Y0068003D01*
X0139751Y0072003D01*
X0138630Y0072467D01*
X0135787Y0072467D01*
X0129574Y0078681D01*
X0129574Y0078966D01*
X0129730Y0078966D01*
X0130784Y0080021D01*
X0130784Y0090312D01*
X0129730Y0091366D01*
X0123439Y0091366D01*
X0122384Y0090312D01*
X0122384Y0080021D01*
X0123439Y0078966D01*
X0123474Y0078966D01*
X0123474Y0076811D01*
X0123938Y0075690D01*
X0131938Y0067690D01*
X0132796Y0066832D01*
X0133917Y0066367D01*
X0136760Y0066367D01*
X0137229Y0065898D01*
X0136975Y0065898D01*
X0135920Y0064844D01*
X0135920Y0057841D01*
X0136975Y0056787D01*
X0141974Y0056787D01*
X0141974Y0037311D01*
X0142438Y0036190D01*
X0143296Y0035332D01*
X0156296Y0022332D01*
X0157417Y0021867D01*
X0165448Y0021867D01*
X0165448Y0021621D01*
X0165974Y0021095D01*
X0165974Y0019811D01*
X0166438Y0018690D01*
X0169438Y0015690D01*
X0170296Y0014832D01*
X0170813Y0014617D01*
X0036146Y0014617D01*
X0033691Y0014755D01*
X0028905Y0015848D01*
X0028351Y0016114D02*
X0169013Y0016114D01*
X0167415Y0017713D02*
X0025032Y0017713D01*
X0022810Y0019311D02*
X0166180Y0019311D01*
X0165974Y0020910D02*
X0020805Y0020910D01*
X0019472Y0022508D02*
X0156119Y0022508D01*
X0154521Y0024107D02*
X0018197Y0024107D01*
X0017184Y0025705D02*
X0066636Y0025705D01*
X0066609Y0025721D02*
X0067020Y0025484D01*
X0067478Y0025361D01*
X0070489Y0025361D01*
X0070489Y0029536D01*
X0072039Y0029536D01*
X0072039Y0031086D01*
X0076613Y0031086D01*
X0076613Y0033698D01*
X0144930Y0033698D01*
X0146528Y0032099D02*
X0076613Y0032099D01*
X0076613Y0033698D02*
X0076490Y0034155D01*
X0076253Y0034566D01*
X0075918Y0034901D01*
X0075508Y0035138D01*
X0075050Y0035261D01*
X0072039Y0035261D01*
X0072039Y0031086D01*
X0070489Y0031086D01*
X0070489Y0035261D01*
X0067478Y0035261D01*
X0067020Y0035138D01*
X0066609Y0034901D01*
X0066274Y0034566D01*
X0066037Y0034155D01*
X0065915Y0033698D01*
X0036908Y0033698D01*
X0036190Y0032980D02*
X0037737Y0034527D01*
X0038575Y0036548D01*
X0038575Y0039367D01*
X0039424Y0039367D01*
X0039424Y0038274D01*
X0040479Y0037220D01*
X0049057Y0037220D01*
X0050111Y0038274D01*
X0050111Y0046458D01*
X0049057Y0047513D01*
X0040479Y0047513D01*
X0039424Y0046458D01*
X0039424Y0045467D01*
X0038575Y0045467D01*
X0038575Y0046137D01*
X0037737Y0048158D01*
X0036190Y0049705D01*
X0034169Y0050543D01*
X0031981Y0050543D01*
X0029959Y0049705D01*
X0028412Y0048158D01*
X0028075Y0047344D01*
X0027779Y0047925D01*
X0027270Y0048626D01*
X0026658Y0049238D01*
X0025957Y0049747D01*
X0025186Y0050140D01*
X0024363Y0050407D01*
X0023508Y0050543D01*
X0023275Y0050542D01*
X0023275Y0041543D01*
X0022875Y0041543D01*
X0022875Y0050543D01*
X0022642Y0050543D01*
X0021787Y0050407D01*
X0020964Y0050140D01*
X0020192Y0049747D01*
X0019492Y0049238D01*
X0018880Y0048626D01*
X0018371Y0047925D01*
X0017978Y0047154D01*
X0017710Y0046330D01*
X0017575Y0045475D01*
X0017575Y0041543D01*
X0022875Y0041543D01*
X0022875Y0041142D01*
X0023275Y0041142D01*
X0023275Y0032143D01*
X0023508Y0032143D01*
X0024363Y0032278D01*
X0025186Y0032545D01*
X0025957Y0032938D01*
X0026658Y0033447D01*
X0027270Y0034060D01*
X0027779Y0034760D01*
X0028075Y0035341D01*
X0028412Y0034527D01*
X0029959Y0032980D01*
X0031981Y0032143D01*
X0034169Y0032143D01*
X0036190Y0032980D01*
X0038056Y0035296D02*
X0143331Y0035296D01*
X0143296Y0035332D02*
X0143296Y0035332D01*
X0142146Y0036895D02*
X0075895Y0036895D01*
X0075559Y0036558D02*
X0076613Y0037613D01*
X0076613Y0045403D01*
X0075559Y0046457D01*
X0066969Y0046457D01*
X0066253Y0045741D01*
X0066253Y0046458D01*
X0065198Y0047513D01*
X0064574Y0047513D01*
X0064574Y0047654D01*
X0065251Y0048332D01*
X0066109Y0049190D01*
X0066574Y0050311D01*
X0066574Y0051176D01*
X0068526Y0051176D01*
X0069580Y0052231D01*
X0069580Y0068722D01*
X0068526Y0069776D01*
X0059435Y0069776D01*
X0058380Y0068722D01*
X0058380Y0052231D01*
X0059435Y0051176D01*
X0059469Y0051176D01*
X0058938Y0050645D01*
X0058474Y0049524D01*
X0058474Y0047513D01*
X0056621Y0047513D01*
X0055566Y0046458D01*
X0055566Y0038274D01*
X0056621Y0037220D01*
X0065198Y0037220D01*
X0065915Y0037936D01*
X0065915Y0037613D01*
X0066969Y0036558D01*
X0075559Y0036558D01*
X0072039Y0033698D02*
X0070489Y0033698D01*
X0070489Y0032099D02*
X0072039Y0032099D01*
X0072039Y0030501D02*
X0148127Y0030501D01*
X0149725Y0028902D02*
X0076613Y0028902D01*
X0076613Y0029536D02*
X0076613Y0026924D01*
X0076490Y0026467D01*
X0076253Y0026056D01*
X0075918Y0025721D01*
X0075508Y0025484D01*
X0075050Y0025361D01*
X0072039Y0025361D01*
X0072039Y0029536D01*
X0076613Y0029536D01*
X0076613Y0027304D02*
X0151324Y0027304D01*
X0152922Y0025705D02*
X0075891Y0025705D01*
X0072039Y0025705D02*
X0070489Y0025705D01*
X0070489Y0027304D02*
X0072039Y0027304D01*
X0072039Y0028902D02*
X0070489Y0028902D01*
X0070489Y0029536D02*
X0065915Y0029536D01*
X0065915Y0026924D01*
X0066037Y0026467D01*
X0066274Y0026056D01*
X0066609Y0025721D01*
X0065915Y0027304D02*
X0016415Y0027304D01*
X0015645Y0028902D02*
X0065915Y0028902D01*
X0065915Y0031086D02*
X0070489Y0031086D01*
X0070489Y0029536D01*
X0070489Y0030501D02*
X0015179Y0030501D01*
X0014815Y0032099D02*
X0065915Y0032099D01*
X0065915Y0031086D02*
X0065915Y0033698D01*
X0066632Y0036895D02*
X0038575Y0036895D01*
X0038575Y0038494D02*
X0039424Y0038494D01*
X0050111Y0038494D02*
X0055566Y0038494D01*
X0055566Y0040092D02*
X0050111Y0040092D01*
X0050111Y0041691D02*
X0055566Y0041691D01*
X0055566Y0043289D02*
X0050111Y0043289D01*
X0050111Y0044888D02*
X0055566Y0044888D01*
X0055594Y0046486D02*
X0050083Y0046486D01*
X0058474Y0048085D02*
X0037768Y0048085D01*
X0038430Y0046486D02*
X0039452Y0046486D01*
X0036212Y0049683D02*
X0058540Y0049683D01*
X0059330Y0051282D02*
X0032977Y0051282D01*
X0033042Y0051299D02*
X0033452Y0051536D01*
X0033788Y0051871D01*
X0034025Y0052282D01*
X0034147Y0052739D01*
X0034147Y0059676D01*
X0029347Y0059676D01*
X0029347Y0051176D01*
X0032584Y0051176D01*
X0033042Y0051299D01*
X0034147Y0052880D02*
X0058380Y0052880D01*
X0058380Y0054479D02*
X0034147Y0054479D01*
X0034147Y0056077D02*
X0058380Y0056077D01*
X0058380Y0057676D02*
X0034147Y0057676D01*
X0034147Y0059274D02*
X0058380Y0059274D01*
X0058380Y0060873D02*
X0029347Y0060873D01*
X0029347Y0061276D02*
X0029347Y0059676D01*
X0027747Y0059676D01*
X0027747Y0051176D01*
X0024510Y0051176D01*
X0024052Y0051299D01*
X0023642Y0051536D01*
X0023307Y0051871D01*
X0023070Y0052282D01*
X0022947Y0052739D01*
X0022947Y0059676D01*
X0027747Y0059676D01*
X0027747Y0061276D01*
X0022947Y0061276D01*
X0022947Y0068213D01*
X0023070Y0068671D01*
X0023307Y0069082D01*
X0023642Y0069417D01*
X0024052Y0069654D01*
X0024510Y0069776D01*
X0027747Y0069776D01*
X0027747Y0061276D01*
X0029347Y0061276D01*
X0034147Y0061276D01*
X0034147Y0068213D01*
X0034025Y0068671D01*
X0033788Y0069082D01*
X0033452Y0069417D01*
X0033042Y0069654D01*
X0032584Y0069776D01*
X0029347Y0069776D01*
X0029347Y0061276D01*
X0029347Y0062471D02*
X0027747Y0062471D01*
X0027747Y0060873D02*
X0014224Y0060873D01*
X0014224Y0062471D02*
X0022947Y0062471D01*
X0022947Y0064070D02*
X0014224Y0064070D01*
X0014224Y0065668D02*
X0022947Y0065668D01*
X0022947Y0067267D02*
X0014224Y0067267D01*
X0014224Y0068865D02*
X0023182Y0068865D01*
X0027747Y0068865D02*
X0029347Y0068865D01*
X0029347Y0067267D02*
X0027747Y0067267D01*
X0027747Y0065668D02*
X0029347Y0065668D01*
X0029347Y0064070D02*
X0027747Y0064070D01*
X0034147Y0064070D02*
X0058380Y0064070D01*
X0058380Y0065668D02*
X0034147Y0065668D01*
X0034147Y0067267D02*
X0058380Y0067267D01*
X0058524Y0068865D02*
X0033913Y0068865D01*
X0034147Y0062471D02*
X0058380Y0062471D01*
X0069580Y0062471D02*
X0082377Y0062471D01*
X0082377Y0060873D02*
X0069580Y0060873D01*
X0069580Y0059274D02*
X0082377Y0059274D01*
X0082543Y0057676D02*
X0069580Y0057676D01*
X0069580Y0056077D02*
X0141974Y0056077D01*
X0141974Y0054479D02*
X0069580Y0054479D01*
X0069580Y0052880D02*
X0141974Y0052880D01*
X0141974Y0051282D02*
X0068631Y0051282D01*
X0066314Y0049683D02*
X0141974Y0049683D01*
X0141974Y0048085D02*
X0065004Y0048085D01*
X0066225Y0046486D02*
X0141974Y0046486D01*
X0141974Y0044888D02*
X0076613Y0044888D01*
X0076613Y0043289D02*
X0141974Y0043289D01*
X0141974Y0041691D02*
X0076613Y0041691D01*
X0076613Y0040092D02*
X0141974Y0040092D01*
X0141974Y0038494D02*
X0076613Y0038494D01*
X0097623Y0057676D02*
X0101522Y0057676D01*
X0101634Y0057481D02*
X0101970Y0057146D01*
X0102380Y0056909D01*
X0102838Y0056787D01*
X0108402Y0056787D01*
X0108402Y0060764D01*
X0109558Y0060764D01*
X0109558Y0056787D01*
X0115123Y0056787D01*
X0115581Y0056909D01*
X0115991Y0057146D01*
X0116326Y0057481D01*
X0116563Y0057892D01*
X0116686Y0058350D01*
X0116686Y0060765D01*
X0109558Y0060765D01*
X0109558Y0061920D01*
X0116686Y0061920D01*
X0116686Y0064335D01*
X0116563Y0064793D01*
X0116326Y0065204D01*
X0115991Y0065539D01*
X0115581Y0065776D01*
X0115123Y0065898D01*
X0109558Y0065898D01*
X0109558Y0061921D01*
X0108402Y0061921D01*
X0108402Y0065898D01*
X0102838Y0065898D01*
X0102380Y0065776D01*
X0101970Y0065539D01*
X0101634Y0065204D01*
X0101397Y0064793D01*
X0101275Y0064335D01*
X0101275Y0061920D01*
X0108402Y0061920D01*
X0108402Y0060765D01*
X0101275Y0060765D01*
X0101275Y0058350D01*
X0101397Y0057892D01*
X0101634Y0057481D01*
X0101275Y0059274D02*
X0097788Y0059274D01*
X0097788Y0060873D02*
X0108402Y0060873D01*
X0109558Y0060873D02*
X0124150Y0060873D01*
X0124150Y0060765D02*
X0117023Y0060765D01*
X0117023Y0058350D01*
X0117145Y0057892D01*
X0117382Y0057481D01*
X0117718Y0057146D01*
X0118128Y0056909D01*
X0118586Y0056787D01*
X0124150Y0056787D01*
X0124150Y0060764D01*
X0125306Y0060764D01*
X0125306Y0056787D01*
X0130871Y0056787D01*
X0131329Y0056909D01*
X0131739Y0057146D01*
X0132074Y0057481D01*
X0132311Y0057892D01*
X0132434Y0058350D01*
X0132434Y0060765D01*
X0125306Y0060765D01*
X0125306Y0061920D01*
X0132434Y0061920D01*
X0132434Y0064335D01*
X0132311Y0064793D01*
X0132074Y0065204D01*
X0131739Y0065539D01*
X0131329Y0065776D01*
X0130871Y0065898D01*
X0125306Y0065898D01*
X0125306Y0061921D01*
X0124150Y0061921D01*
X0124150Y0065898D01*
X0118586Y0065898D01*
X0118128Y0065776D01*
X0117718Y0065539D01*
X0117382Y0065204D01*
X0117145Y0064793D01*
X0117023Y0064335D01*
X0117023Y0061920D01*
X0124150Y0061920D01*
X0124150Y0060765D01*
X0125306Y0060873D02*
X0135920Y0060873D01*
X0135920Y0062471D02*
X0132434Y0062471D01*
X0132434Y0064070D02*
X0135920Y0064070D01*
X0136745Y0065668D02*
X0131515Y0065668D01*
X0132361Y0067267D02*
X0089574Y0067267D01*
X0089574Y0068865D02*
X0130762Y0068865D01*
X0129164Y0070464D02*
X0090383Y0070464D01*
X0091982Y0072062D02*
X0127565Y0072062D01*
X0125967Y0073661D02*
X0093580Y0073661D01*
X0095179Y0075259D02*
X0124368Y0075259D01*
X0123474Y0076858D02*
X0096777Y0076858D01*
X0098376Y0078456D02*
X0123474Y0078456D01*
X0122384Y0080055D02*
X0121552Y0080055D01*
X0121562Y0080071D02*
X0121684Y0080529D01*
X0121684Y0084766D01*
X0117884Y0084766D01*
X0117884Y0078966D01*
X0120121Y0078966D01*
X0120579Y0079089D01*
X0120989Y0079326D01*
X0121325Y0079661D01*
X0121562Y0080071D01*
X0121684Y0081653D02*
X0122384Y0081653D01*
X0122384Y0083252D02*
X0121684Y0083252D01*
X0122384Y0084850D02*
X0117884Y0084850D01*
X0117884Y0084766D02*
X0117884Y0085566D01*
X0117084Y0085566D01*
X0117084Y0084766D01*
X0113284Y0084766D01*
X0113284Y0080529D01*
X0113407Y0080071D01*
X0113644Y0079661D01*
X0113979Y0079326D01*
X0114389Y0079089D01*
X0114847Y0078966D01*
X0117084Y0078966D01*
X0117084Y0084766D01*
X0117884Y0084766D01*
X0117884Y0085566D02*
X0121684Y0085566D01*
X0121684Y0089803D01*
X0121562Y0090261D01*
X0121325Y0090671D01*
X0120989Y0091006D01*
X0120579Y0091243D01*
X0120121Y0091366D01*
X0117884Y0091366D01*
X0117884Y0085566D01*
X0117084Y0085566D02*
X0117084Y0091366D01*
X0114847Y0091366D01*
X0114389Y0091243D01*
X0113979Y0091006D01*
X0113644Y0090671D01*
X0113407Y0090261D01*
X0113284Y0089803D01*
X0113284Y0085566D01*
X0117084Y0085566D01*
X0117084Y0084850D02*
X0112584Y0084850D01*
X0112584Y0083252D02*
X0113284Y0083252D01*
X0113284Y0081653D02*
X0112584Y0081653D01*
X0112584Y0080055D02*
X0113416Y0080055D01*
X0117084Y0080055D02*
X0117884Y0080055D01*
X0117884Y0081653D02*
X0117084Y0081653D01*
X0117084Y0083252D02*
X0117884Y0083252D01*
X0117884Y0086449D02*
X0117084Y0086449D01*
X0117084Y0088047D02*
X0117884Y0088047D01*
X0117884Y0089646D02*
X0117084Y0089646D01*
X0117084Y0091244D02*
X0117884Y0091244D01*
X0120576Y0091244D02*
X0123317Y0091244D01*
X0122384Y0089646D02*
X0121684Y0089646D01*
X0121684Y0088047D02*
X0122384Y0088047D01*
X0122384Y0086449D02*
X0121684Y0086449D01*
X0113284Y0086449D02*
X0112584Y0086449D01*
X0112584Y0088047D02*
X0113284Y0088047D01*
X0113284Y0089646D02*
X0112584Y0089646D01*
X0113164Y0091244D02*
X0114393Y0091244D01*
X0109333Y0096040D02*
X0087714Y0096040D01*
X0086116Y0097638D02*
X0111123Y0097638D01*
X0107734Y0094441D02*
X0089313Y0094441D01*
X0090911Y0092843D02*
X0106136Y0092843D01*
X0105117Y0091244D02*
X0092510Y0091244D01*
X0094108Y0089646D02*
X0104184Y0089646D01*
X0099403Y0088047D02*
X0095707Y0088047D01*
X0097305Y0086449D02*
X0097742Y0086449D01*
X0091876Y0083252D02*
X0014224Y0083252D01*
X0014224Y0084850D02*
X0090277Y0084850D01*
X0088679Y0086449D02*
X0014224Y0086449D01*
X0014224Y0088047D02*
X0087080Y0088047D01*
X0085482Y0089646D02*
X0014224Y0089646D01*
X0014224Y0091244D02*
X0083883Y0091244D01*
X0082285Y0092843D02*
X0014224Y0092843D01*
X0014224Y0094441D02*
X0080686Y0094441D01*
X0079088Y0096040D02*
X0014224Y0096040D01*
X0014224Y0097638D02*
X0077489Y0097638D01*
X0075891Y0099237D02*
X0014224Y0099237D01*
X0014224Y0100835D02*
X0074292Y0100835D01*
X0072694Y0102434D02*
X0014224Y0102434D01*
X0014224Y0104032D02*
X0071095Y0104032D01*
X0076525Y0107229D02*
X0108598Y0107229D01*
X0108598Y0108767D02*
X0108598Y0104999D01*
X0108720Y0104541D01*
X0108957Y0104131D01*
X0109292Y0103796D01*
X0109703Y0103559D01*
X0110161Y0103436D01*
X0116684Y0103436D01*
X0116684Y0108767D01*
X0108598Y0108767D01*
X0108598Y0110367D02*
X0116684Y0110367D01*
X0116684Y0108767D01*
X0118284Y0108767D01*
X0118284Y0103436D01*
X0124808Y0103436D01*
X0125266Y0103559D01*
X0125676Y0103796D01*
X0126011Y0104131D01*
X0126248Y0104541D01*
X0126371Y0104999D01*
X0126371Y0108767D01*
X0118284Y0108767D01*
X0118284Y0110367D01*
X0116684Y0110367D01*
X0116684Y0115698D01*
X0110161Y0115698D01*
X0109703Y0115575D01*
X0109292Y0115338D01*
X0108957Y0115003D01*
X0108720Y0114592D01*
X0108598Y0114135D01*
X0108598Y0110367D01*
X0108598Y0110427D02*
X0073328Y0110427D01*
X0071729Y0112025D02*
X0108598Y0112025D01*
X0108598Y0113624D02*
X0070131Y0113624D01*
X0069777Y0115222D02*
X0109176Y0115222D01*
X0116684Y0115222D02*
X0118284Y0115222D01*
X0118284Y0115698D02*
X0124808Y0115698D01*
X0125266Y0115575D01*
X0125676Y0115338D01*
X0126011Y0115003D01*
X0126248Y0114592D01*
X0126371Y0114135D01*
X0126371Y0110367D01*
X0118284Y0110367D01*
X0118284Y0115698D01*
X0118284Y0113624D02*
X0116684Y0113624D01*
X0116684Y0112025D02*
X0118284Y0112025D01*
X0118284Y0110427D02*
X0116684Y0110427D01*
X0116684Y0108828D02*
X0074926Y0108828D01*
X0078123Y0105631D02*
X0108598Y0105631D01*
X0109056Y0104032D02*
X0079722Y0104032D01*
X0081320Y0102434D02*
X0175131Y0102434D01*
X0175147Y0102473D02*
X0174924Y0101934D01*
X0174924Y0100250D01*
X0174369Y0100020D01*
X0172822Y0098473D01*
X0171984Y0096452D01*
X0171984Y0086863D01*
X0172822Y0084842D01*
X0174369Y0083295D01*
X0175772Y0082714D01*
X0174945Y0082714D01*
X0174945Y0076564D01*
X0174945Y0076564D01*
X0174945Y0082714D01*
X0173508Y0082714D01*
X0173050Y0082591D01*
X0172640Y0082354D01*
X0172305Y0082019D01*
X0172068Y0081609D01*
X0171945Y0081151D01*
X0171945Y0076564D01*
X0174945Y0076564D01*
X0174945Y0076564D01*
X0174945Y0070414D01*
X0176382Y0070414D01*
X0176840Y0070536D01*
X0177250Y0070773D01*
X0177445Y0070968D01*
X0177999Y0070414D01*
X0181890Y0070414D01*
X0182445Y0070968D01*
X0182999Y0070414D01*
X0186890Y0070414D01*
X0187445Y0070968D01*
X0187999Y0070414D01*
X0191890Y0070414D01*
X0192945Y0071468D01*
X0192945Y0081659D01*
X0191890Y0082714D01*
X0189197Y0082714D01*
X0190600Y0083295D01*
X0192147Y0084842D01*
X0192984Y0086863D01*
X0192984Y0089057D01*
X0201300Y0089057D01*
X0202255Y0089453D01*
X0202987Y0090185D01*
X0203383Y0091140D01*
X0203383Y0108435D01*
X0203898Y0108648D01*
X0205445Y0110196D01*
X0206283Y0112217D01*
X0206283Y0114405D01*
X0205445Y0116427D01*
X0203898Y0117974D01*
X0201877Y0118811D01*
X0199689Y0118811D01*
X0197667Y0117974D01*
X0196120Y0116427D01*
X0195283Y0114405D01*
X0195283Y0112217D01*
X0196120Y0110196D01*
X0197667Y0108648D01*
X0198183Y0108435D01*
X0198183Y0094257D01*
X0192984Y0094257D01*
X0192984Y0096452D01*
X0192147Y0098473D01*
X0190600Y0100020D01*
X0188578Y0100857D01*
X0186390Y0100857D01*
X0184369Y0100020D01*
X0182822Y0098473D01*
X0182484Y0097659D01*
X0182147Y0098473D01*
X0180600Y0100020D01*
X0180124Y0100217D01*
X0180124Y0100340D01*
X0180728Y0100945D01*
X0181124Y0101900D01*
X0181124Y0102062D01*
X0181773Y0102062D01*
X0182828Y0103117D01*
X0182828Y0107757D01*
X0181773Y0108812D01*
X0175558Y0108812D01*
X0174503Y0107757D01*
X0174503Y0103117D01*
X0175147Y0102473D01*
X0174924Y0100835D02*
X0082919Y0100835D01*
X0084517Y0099237D02*
X0173586Y0099237D01*
X0172476Y0097638D02*
X0131924Y0097638D01*
X0133714Y0096040D02*
X0171984Y0096040D01*
X0171984Y0094441D02*
X0135313Y0094441D01*
X0136911Y0092843D02*
X0171984Y0092843D01*
X0171984Y0091244D02*
X0138510Y0091244D01*
X0140108Y0089646D02*
X0171984Y0089646D01*
X0171984Y0088047D02*
X0141707Y0088047D01*
X0143305Y0086449D02*
X0172156Y0086449D01*
X0172818Y0084850D02*
X0144904Y0084850D01*
X0146502Y0083252D02*
X0174473Y0083252D01*
X0174945Y0081653D02*
X0174945Y0081653D01*
X0174945Y0080055D02*
X0174945Y0080055D01*
X0174945Y0078456D02*
X0174945Y0078456D01*
X0174945Y0076858D02*
X0174945Y0076858D01*
X0174945Y0076564D02*
X0171945Y0076564D01*
X0171945Y0071977D01*
X0172068Y0071519D01*
X0172305Y0071109D01*
X0172640Y0070773D01*
X0173050Y0070536D01*
X0173508Y0070414D01*
X0174945Y0070414D01*
X0174945Y0076564D01*
X0174945Y0076564D01*
X0174945Y0075259D02*
X0174945Y0075259D01*
X0174945Y0073661D02*
X0174945Y0073661D01*
X0174945Y0072062D02*
X0174945Y0072062D01*
X0174945Y0070464D02*
X0174945Y0070464D01*
X0176568Y0070464D02*
X0177949Y0070464D01*
X0181940Y0070464D02*
X0182949Y0070464D01*
X0186940Y0070464D02*
X0187949Y0070464D01*
X0191940Y0070464D02*
X0228243Y0070464D01*
X0228243Y0072062D02*
X0192945Y0072062D01*
X0192945Y0073661D02*
X0228243Y0073661D01*
X0228243Y0075259D02*
X0192945Y0075259D01*
X0192945Y0076858D02*
X0228243Y0076858D01*
X0228243Y0078456D02*
X0192945Y0078456D01*
X0192945Y0080055D02*
X0228243Y0080055D01*
X0228243Y0081653D02*
X0192945Y0081653D01*
X0190496Y0083252D02*
X0228243Y0083252D01*
X0228243Y0084850D02*
X0192150Y0084850D01*
X0192812Y0086449D02*
X0228243Y0086449D01*
X0228243Y0088047D02*
X0192984Y0088047D01*
X0187484Y0091657D02*
X0200783Y0091657D01*
X0200783Y0113311D01*
X0205944Y0115222D02*
X0206724Y0115222D01*
X0206724Y0113624D02*
X0206283Y0113624D01*
X0206203Y0112025D02*
X0208163Y0112025D01*
X0209762Y0110427D02*
X0205541Y0110427D01*
X0204078Y0108828D02*
X0211360Y0108828D01*
X0212959Y0107229D02*
X0203383Y0107229D01*
X0203383Y0105631D02*
X0214557Y0105631D01*
X0216156Y0104032D02*
X0203383Y0104032D01*
X0203383Y0102434D02*
X0217754Y0102434D01*
X0219353Y0100835D02*
X0203383Y0100835D01*
X0203383Y0099237D02*
X0220951Y0099237D01*
X0222550Y0097638D02*
X0203383Y0097638D01*
X0203383Y0096040D02*
X0224148Y0096040D01*
X0225747Y0094441D02*
X0203383Y0094441D01*
X0203383Y0092843D02*
X0228243Y0092843D01*
X0228243Y0091244D02*
X0203383Y0091244D01*
X0202448Y0089646D02*
X0228243Y0089646D01*
X0237749Y0089646D02*
X0248939Y0089646D01*
X0250537Y0091244D02*
X0237749Y0091244D01*
X0237749Y0092843D02*
X0252136Y0092843D01*
X0253734Y0094441D02*
X0237749Y0094441D01*
X0237749Y0096040D02*
X0255333Y0096040D01*
X0256931Y0097638D02*
X0237749Y0097638D01*
X0237749Y0098919D02*
X0237649Y0099019D01*
X0237749Y0099393D01*
X0237749Y0101316D01*
X0233082Y0101316D01*
X0233082Y0101487D01*
X0237749Y0101487D01*
X0237749Y0103410D01*
X0237626Y0103868D01*
X0237389Y0104278D01*
X0237054Y0104614D01*
X0236644Y0104851D01*
X0236186Y0104973D01*
X0233082Y0104973D01*
X0233082Y0101487D01*
X0232910Y0101487D01*
X0232910Y0101316D01*
X0228243Y0101316D01*
X0228243Y0099393D01*
X0228344Y0099019D01*
X0228243Y0098919D01*
X0228243Y0098717D01*
X0227976Y0098717D01*
X0211324Y0115370D01*
X0211324Y0122370D01*
X0204390Y0129304D01*
X0205791Y0130705D01*
X0208679Y0127817D01*
X0212904Y0127817D01*
X0215791Y0130705D01*
X0218679Y0127817D01*
X0219371Y0127817D01*
X0219571Y0127617D01*
X0222224Y0124965D01*
X0222224Y0124465D01*
X0223571Y0123117D01*
X0234571Y0112117D01*
X0235291Y0112117D01*
X0235291Y0110636D01*
X0236345Y0109582D01*
X0292875Y0109582D01*
X0282260Y0098967D01*
X0258917Y0098967D01*
X0257796Y0098503D01*
X0239296Y0080003D01*
X0238438Y0079145D01*
X0237974Y0078024D01*
X0237974Y0057681D01*
X0237749Y0057456D01*
X0237749Y0098919D01*
X0237707Y0099237D02*
X0282530Y0099237D01*
X0284128Y0100835D02*
X0237749Y0100835D01*
X0237749Y0102434D02*
X0285727Y0102434D01*
X0287325Y0104032D02*
X0237531Y0104032D01*
X0233082Y0104032D02*
X0232910Y0104032D01*
X0232910Y0104973D02*
X0229806Y0104973D01*
X0229349Y0104851D01*
X0228938Y0104614D01*
X0228603Y0104278D01*
X0228366Y0103868D01*
X0228243Y0103410D01*
X0228243Y0101487D01*
X0232910Y0101487D01*
X0232910Y0104973D01*
X0228461Y0104032D02*
X0222661Y0104032D01*
X0224260Y0102434D02*
X0228243Y0102434D01*
X0228243Y0100835D02*
X0225858Y0100835D01*
X0227457Y0099237D02*
X0228285Y0099237D01*
X0232910Y0102434D02*
X0233082Y0102434D01*
X0221063Y0105631D02*
X0288924Y0105631D01*
X0290522Y0107229D02*
X0219464Y0107229D01*
X0217866Y0108828D02*
X0292121Y0108828D01*
X0297551Y0105631D02*
X0306199Y0105631D01*
X0306199Y0107229D02*
X0299149Y0107229D01*
X0300609Y0108690D02*
X0300979Y0109582D01*
X0301379Y0109582D01*
X0301480Y0109682D01*
X0301854Y0109582D01*
X0303776Y0109582D01*
X0303776Y0114249D01*
X0303948Y0114249D01*
X0303948Y0109582D01*
X0305871Y0109582D01*
X0306199Y0109670D01*
X0306199Y0048133D01*
X0305871Y0048221D01*
X0303948Y0048221D01*
X0303948Y0043554D01*
X0303776Y0043554D01*
X0303776Y0048221D01*
X0301854Y0048221D01*
X0301480Y0048121D01*
X0301379Y0048221D01*
X0291934Y0048221D01*
X0292324Y0049161D01*
X0292324Y0050673D01*
X0291745Y0052070D01*
X0290676Y0053139D01*
X0289279Y0053717D01*
X0287768Y0053717D01*
X0286371Y0053139D01*
X0286024Y0052791D01*
X0285676Y0053139D01*
X0284279Y0053717D01*
X0282768Y0053717D01*
X0281371Y0053139D01*
X0280302Y0052070D01*
X0279724Y0050673D01*
X0279724Y0049161D01*
X0280113Y0048221D01*
X0246934Y0048221D01*
X0247324Y0049161D01*
X0247324Y0050673D01*
X0246745Y0052070D01*
X0245676Y0053139D01*
X0244279Y0053717D01*
X0242768Y0053717D01*
X0242544Y0053625D01*
X0243609Y0054690D01*
X0244074Y0055811D01*
X0244074Y0076154D01*
X0260787Y0092867D01*
X0284130Y0092867D01*
X0285251Y0093332D01*
X0286109Y0094190D01*
X0300609Y0108690D01*
X0300667Y0108828D02*
X0306199Y0108828D01*
X0303948Y0110427D02*
X0303776Y0110427D01*
X0303776Y0112025D02*
X0303948Y0112025D01*
X0303948Y0113624D02*
X0303776Y0113624D01*
X0303776Y0114421D02*
X0303776Y0119087D01*
X0303562Y0119087D01*
X0303615Y0119140D01*
X0303615Y0121695D01*
X0306199Y0124280D01*
X0306199Y0118999D01*
X0305871Y0119087D01*
X0303948Y0119087D01*
X0303948Y0114421D01*
X0303776Y0114421D01*
X0303776Y0115222D02*
X0303948Y0115222D01*
X0303948Y0116821D02*
X0303776Y0116821D01*
X0303776Y0118419D02*
X0303948Y0118419D01*
X0303615Y0120018D02*
X0306199Y0120018D01*
X0306199Y0121616D02*
X0303615Y0121616D01*
X0305134Y0123215D02*
X0306199Y0123215D01*
X0297684Y0126412D02*
X0295886Y0126412D01*
X0296528Y0124813D02*
X0296865Y0124813D01*
X0296865Y0123215D02*
X0296528Y0123215D01*
X0296528Y0121616D02*
X0296865Y0121616D01*
X0296865Y0120018D02*
X0296528Y0120018D01*
X0289779Y0120018D02*
X0246324Y0120018D01*
X0246324Y0121616D02*
X0254051Y0121616D01*
X0254499Y0121168D02*
X0256520Y0120331D01*
X0258708Y0120331D01*
X0260730Y0121168D01*
X0262277Y0122715D01*
X0263114Y0124737D01*
X0263114Y0126925D01*
X0262277Y0128946D01*
X0260730Y0130493D01*
X0260415Y0130624D01*
X0261730Y0131168D01*
X0263277Y0132715D01*
X0264114Y0134737D01*
X0264114Y0136925D01*
X0263277Y0138946D01*
X0261730Y0140493D01*
X0260364Y0141059D01*
X0260497Y0141127D01*
X0261197Y0141636D01*
X0261809Y0142248D01*
X0262318Y0142948D01*
X0262711Y0143719D01*
X0262979Y0144543D01*
X0263114Y0145398D01*
X0263114Y0145631D01*
X0257814Y0145631D01*
X0257814Y0146031D01*
X0257414Y0146031D01*
X0257414Y0151331D01*
X0257181Y0151331D01*
X0256326Y0151195D01*
X0255503Y0150928D01*
X0254732Y0150535D01*
X0254031Y0150026D01*
X0253419Y0149414D01*
X0252910Y0148713D01*
X0252517Y0147942D01*
X0252250Y0147119D01*
X0252114Y0146264D01*
X0252114Y0146031D01*
X0257414Y0146031D01*
X0257414Y0145631D01*
X0252114Y0145631D01*
X0252114Y0145398D01*
X0252250Y0144543D01*
X0252517Y0143719D01*
X0252910Y0142948D01*
X0253419Y0142248D01*
X0254031Y0141636D01*
X0254732Y0141127D01*
X0255503Y0140734D01*
X0255826Y0140629D01*
X0255499Y0140493D01*
X0253952Y0138946D01*
X0253114Y0136925D01*
X0253114Y0134737D01*
X0253952Y0132715D01*
X0255499Y0131168D01*
X0255813Y0131038D01*
X0254499Y0130493D01*
X0252952Y0128946D01*
X0252114Y0126925D01*
X0252114Y0124737D01*
X0252952Y0122715D01*
X0254499Y0121168D01*
X0252745Y0123215D02*
X0246324Y0123215D01*
X0245880Y0124813D02*
X0252114Y0124813D01*
X0252114Y0126412D02*
X0244282Y0126412D01*
X0243324Y0128010D02*
X0252564Y0128010D01*
X0253614Y0129609D02*
X0244695Y0129609D01*
X0245891Y0131207D02*
X0255460Y0131207D01*
X0253914Y0132806D02*
X0245891Y0132806D01*
X0245891Y0134404D02*
X0253252Y0134404D01*
X0253114Y0136003D02*
X0244918Y0136003D01*
X0243320Y0137601D02*
X0253394Y0137601D01*
X0254205Y0139200D02*
X0239559Y0139200D01*
X0238263Y0137601D02*
X0237960Y0137601D01*
X0236664Y0136003D02*
X0236362Y0136003D01*
X0233053Y0139200D02*
X0219559Y0139200D01*
X0218263Y0137601D02*
X0217960Y0137601D01*
X0216664Y0136003D02*
X0216362Y0136003D01*
X0213053Y0139200D02*
X0195324Y0139200D01*
X0195324Y0140798D02*
X0214652Y0140798D01*
X0214399Y0141555D02*
X0214810Y0141792D01*
X0215145Y0142127D01*
X0215382Y0142538D01*
X0215505Y0142995D01*
X0215505Y0145594D01*
X0215842Y0145594D01*
X0215505Y0145595D02*
X0215505Y0148194D01*
X0215382Y0148651D01*
X0215145Y0149062D01*
X0214810Y0149397D01*
X0214399Y0149634D01*
X0213942Y0149757D01*
X0212130Y0149757D01*
X0212130Y0145595D01*
X0212130Y0145595D01*
X0212130Y0149757D01*
X0210318Y0149757D01*
X0209860Y0149634D01*
X0209450Y0149397D01*
X0209115Y0149062D01*
X0208878Y0148651D01*
X0208755Y0148194D01*
X0208755Y0145595D01*
X0212130Y0145595D01*
X0215505Y0145595D01*
X0215505Y0145594D02*
X0212130Y0145594D01*
X0212130Y0145594D01*
X0212130Y0141432D01*
X0213942Y0141432D01*
X0214399Y0141555D01*
X0215301Y0142397D02*
X0215932Y0142397D01*
X0215842Y0143995D02*
X0215505Y0143995D01*
X0212130Y0143995D02*
X0212130Y0143995D01*
X0212130Y0142397D02*
X0212130Y0142397D01*
X0212130Y0141432D02*
X0212130Y0145594D01*
X0212130Y0145594D01*
X0212130Y0145595D01*
X0212130Y0145594D01*
X0208755Y0145594D01*
X0203300Y0145594D01*
X0203300Y0145201D02*
X0199925Y0145201D01*
X0199925Y0149363D01*
X0198113Y0149363D01*
X0197656Y0149240D01*
X0197245Y0149003D01*
X0196910Y0148668D01*
X0196673Y0148258D01*
X0196550Y0147800D01*
X0196550Y0145201D01*
X0199925Y0145201D01*
X0199925Y0145201D01*
X0199925Y0145201D01*
X0199925Y0149363D01*
X0201737Y0149363D01*
X0202195Y0149240D01*
X0202605Y0149003D01*
X0202940Y0148668D01*
X0203177Y0148258D01*
X0203300Y0147800D01*
X0203300Y0145201D01*
X0199925Y0145201D01*
X0196550Y0145201D01*
X0196550Y0142602D01*
X0196673Y0142144D01*
X0196910Y0141733D01*
X0197245Y0141398D01*
X0197656Y0141161D01*
X0198113Y0141039D01*
X0199925Y0141039D01*
X0199925Y0145201D01*
X0199925Y0145201D01*
X0199925Y0145201D01*
X0199925Y0141039D01*
X0201737Y0141039D01*
X0202195Y0141161D01*
X0202605Y0141398D01*
X0202940Y0141733D01*
X0203177Y0142144D01*
X0203300Y0142602D01*
X0203300Y0145201D01*
X0203300Y0143995D02*
X0208755Y0143995D01*
X0208755Y0142995D02*
X0208878Y0142538D01*
X0209115Y0142127D01*
X0209450Y0141792D01*
X0209860Y0141555D01*
X0210318Y0141432D01*
X0212130Y0141432D01*
X0208959Y0142397D02*
X0203245Y0142397D01*
X0199925Y0142397D02*
X0199925Y0142397D01*
X0199925Y0143995D02*
X0199925Y0143995D01*
X0199925Y0145594D02*
X0199925Y0145594D01*
X0199925Y0147192D02*
X0199925Y0147192D01*
X0199925Y0148791D02*
X0199925Y0148791D01*
X0197033Y0148791D02*
X0195731Y0148791D01*
X0196213Y0147192D02*
X0196550Y0147192D01*
X0196550Y0145594D02*
X0196213Y0145594D01*
X0196213Y0143995D02*
X0196550Y0143995D01*
X0196605Y0142397D02*
X0196213Y0142397D01*
X0190724Y0140798D02*
X0015724Y0140798D01*
X0015217Y0139200D02*
X0190553Y0139200D01*
X0188263Y0137601D02*
X0014852Y0137601D01*
X0014487Y0136003D02*
X0186664Y0136003D01*
X0185691Y0134404D02*
X0160589Y0134404D01*
X0160329Y0134664D02*
X0158307Y0135502D01*
X0156119Y0135502D01*
X0154098Y0134664D01*
X0152551Y0133117D01*
X0151713Y0131096D01*
X0151713Y0128908D01*
X0152551Y0126886D01*
X0154098Y0125339D01*
X0156119Y0124502D01*
X0158307Y0124502D01*
X0160329Y0125339D01*
X0161876Y0126886D01*
X0162713Y0128908D01*
X0162713Y0131096D01*
X0161876Y0133117D01*
X0160329Y0134664D01*
X0162005Y0132806D02*
X0185691Y0132806D01*
X0185691Y0131207D02*
X0162667Y0131207D01*
X0162713Y0129609D02*
X0186888Y0129609D01*
X0188486Y0128010D02*
X0162342Y0128010D01*
X0161402Y0126412D02*
X0200777Y0126412D01*
X0202375Y0124813D02*
X0159060Y0124813D01*
X0155367Y0124813D02*
X0133460Y0124813D01*
X0132707Y0124502D02*
X0134729Y0125339D01*
X0136276Y0126886D01*
X0137113Y0128908D01*
X0137113Y0131096D01*
X0136276Y0133117D01*
X0134729Y0134664D01*
X0132707Y0135502D01*
X0130519Y0135502D01*
X0128498Y0134664D01*
X0126951Y0133117D01*
X0126113Y0131096D01*
X0126113Y0128908D01*
X0126951Y0126886D01*
X0128498Y0125339D01*
X0130519Y0124502D01*
X0132707Y0124502D01*
X0129767Y0124813D02*
X0081182Y0124813D01*
X0081182Y0124367D02*
X0081182Y0127379D01*
X0077007Y0127379D01*
X0077007Y0128928D01*
X0081182Y0128928D01*
X0081182Y0131940D01*
X0081059Y0132398D01*
X0080822Y0132808D01*
X0080487Y0133143D01*
X0080077Y0133380D01*
X0079619Y0133503D01*
X0077007Y0133503D01*
X0077007Y0128928D01*
X0075457Y0128928D01*
X0075457Y0127379D01*
X0071283Y0127379D01*
X0071283Y0124367D01*
X0071405Y0123910D01*
X0071642Y0123499D01*
X0071977Y0123164D01*
X0072388Y0122927D01*
X0072846Y0122804D01*
X0075457Y0122804D01*
X0075457Y0127379D01*
X0077007Y0127379D01*
X0077007Y0122804D01*
X0079619Y0122804D01*
X0080077Y0122927D01*
X0080487Y0123164D01*
X0080822Y0123499D01*
X0081059Y0123910D01*
X0081182Y0124367D01*
X0080538Y0123215D02*
X0203974Y0123215D01*
X0205572Y0121616D02*
X0069777Y0121616D01*
X0069777Y0120018D02*
X0206724Y0120018D01*
X0206724Y0118419D02*
X0202823Y0118419D01*
X0205051Y0116821D02*
X0206724Y0116821D01*
X0211324Y0116821D02*
X0229868Y0116821D01*
X0228269Y0118419D02*
X0211324Y0118419D01*
X0211324Y0120018D02*
X0226671Y0120018D01*
X0225072Y0121616D02*
X0211324Y0121616D01*
X0210479Y0123215D02*
X0223474Y0123215D01*
X0222224Y0124813D02*
X0208880Y0124813D01*
X0207282Y0126412D02*
X0220777Y0126412D01*
X0218486Y0128010D02*
X0213097Y0128010D01*
X0214695Y0129609D02*
X0216888Y0129609D01*
X0208486Y0128010D02*
X0205683Y0128010D01*
X0204695Y0129609D02*
X0206888Y0129609D01*
X0206664Y0136003D02*
X0204918Y0136003D01*
X0203320Y0137601D02*
X0208263Y0137601D01*
X0208755Y0142995D02*
X0208755Y0145594D01*
X0208755Y0147192D02*
X0203300Y0147192D01*
X0202818Y0148791D02*
X0208958Y0148791D01*
X0212130Y0148791D02*
X0212130Y0148791D01*
X0212130Y0147192D02*
X0212130Y0147192D01*
X0215505Y0147192D02*
X0215842Y0147192D01*
X0215930Y0148791D02*
X0215302Y0148791D01*
X0222503Y0148791D02*
X0229316Y0148791D01*
X0229193Y0148668D02*
X0229529Y0149003D01*
X0229939Y0149240D01*
X0230397Y0149363D01*
X0232209Y0149363D01*
X0234020Y0149363D01*
X0234478Y0149240D01*
X0234889Y0149003D01*
X0235224Y0148668D01*
X0235461Y0148258D01*
X0235583Y0147800D01*
X0235583Y0145201D01*
X0232209Y0145201D01*
X0232209Y0145201D01*
X0232209Y0145201D01*
X0232209Y0149363D01*
X0232209Y0145201D01*
X0235583Y0145201D01*
X0235583Y0142602D01*
X0235461Y0142144D01*
X0235224Y0141733D01*
X0234889Y0141398D01*
X0234478Y0141161D01*
X0234020Y0141039D01*
X0232209Y0141039D01*
X0232209Y0145201D01*
X0232209Y0145201D01*
X0232209Y0145201D01*
X0228834Y0145201D01*
X0228834Y0147800D01*
X0228957Y0148258D01*
X0229193Y0148668D01*
X0228834Y0147192D02*
X0222591Y0147192D01*
X0222591Y0145594D02*
X0228834Y0145594D01*
X0228834Y0145201D02*
X0228834Y0142602D01*
X0228957Y0142144D01*
X0229193Y0141733D01*
X0229529Y0141398D01*
X0229939Y0141161D01*
X0230397Y0141039D01*
X0232209Y0141039D01*
X0232209Y0145201D01*
X0228834Y0145201D01*
X0228834Y0143995D02*
X0222591Y0143995D01*
X0222501Y0142397D02*
X0228889Y0142397D01*
X0232209Y0142397D02*
X0232209Y0142397D01*
X0232209Y0143995D02*
X0232209Y0143995D01*
X0232209Y0145594D02*
X0232209Y0145594D01*
X0232209Y0147192D02*
X0232209Y0147192D01*
X0232209Y0148791D02*
X0232209Y0148791D01*
X0235101Y0148791D02*
X0236403Y0148791D01*
X0235920Y0147192D02*
X0235583Y0147192D01*
X0235583Y0145594D02*
X0235920Y0145594D01*
X0235920Y0143995D02*
X0235583Y0143995D01*
X0235529Y0142397D02*
X0235920Y0142397D01*
X0234652Y0140798D02*
X0221157Y0140798D01*
X0223320Y0137601D02*
X0228263Y0137601D01*
X0226664Y0136003D02*
X0224918Y0136003D01*
X0241157Y0140798D02*
X0255376Y0140798D01*
X0253311Y0142397D02*
X0242670Y0142397D01*
X0242670Y0143995D02*
X0252427Y0143995D01*
X0252114Y0145594D02*
X0242670Y0145594D01*
X0242670Y0147192D02*
X0252274Y0147192D01*
X0252966Y0148791D02*
X0242188Y0148791D01*
X0254531Y0150389D02*
X0162068Y0150389D01*
X0161917Y0150684D02*
X0162310Y0149913D01*
X0162578Y0149089D01*
X0162713Y0148234D01*
X0162713Y0148002D01*
X0157413Y0148002D01*
X0157013Y0148002D01*
X0157013Y0153302D01*
X0156781Y0153302D01*
X0155925Y0153166D01*
X0155102Y0152899D01*
X0154331Y0152506D01*
X0153630Y0151997D01*
X0153018Y0151385D01*
X0152509Y0150684D01*
X0152116Y0149913D01*
X0151849Y0149089D01*
X0151713Y0148234D01*
X0151713Y0148002D01*
X0157013Y0148002D01*
X0157013Y0147602D01*
X0151713Y0147602D01*
X0151713Y0147369D01*
X0151849Y0146514D01*
X0152116Y0145690D01*
X0152509Y0144919D01*
X0153018Y0144219D01*
X0153630Y0143606D01*
X0154331Y0143098D01*
X0155102Y0142705D01*
X0155925Y0142437D01*
X0156781Y0142302D01*
X0157013Y0142302D01*
X0157013Y0147601D01*
X0157413Y0147601D01*
X0157413Y0142302D01*
X0157646Y0142302D01*
X0158501Y0142437D01*
X0159325Y0142705D01*
X0160096Y0143098D01*
X0160796Y0143606D01*
X0161409Y0144219D01*
X0161917Y0144919D01*
X0162310Y0145690D01*
X0162578Y0146514D01*
X0162713Y0147369D01*
X0162713Y0147602D01*
X0157413Y0147602D01*
X0157413Y0148002D01*
X0157413Y0153302D01*
X0157646Y0153302D01*
X0158501Y0153166D01*
X0159325Y0152899D01*
X0160096Y0152506D01*
X0160796Y0151997D01*
X0161409Y0151385D01*
X0161917Y0150684D01*
X0160805Y0151988D02*
X0306199Y0151988D01*
X0306199Y0153586D02*
X0028694Y0153586D01*
X0025375Y0151988D02*
X0128021Y0151988D01*
X0128030Y0151997D02*
X0127418Y0151385D01*
X0126909Y0150684D01*
X0126516Y0149913D01*
X0126249Y0149089D01*
X0126113Y0148234D01*
X0126113Y0148002D01*
X0131413Y0148002D01*
X0131413Y0153302D01*
X0131181Y0153302D01*
X0130325Y0153166D01*
X0129502Y0152899D01*
X0128731Y0152506D01*
X0128030Y0151997D01*
X0126759Y0150389D02*
X0023017Y0150389D01*
X0021012Y0148791D02*
X0126202Y0148791D01*
X0126113Y0147602D02*
X0126113Y0147369D01*
X0126249Y0146514D01*
X0126516Y0145690D01*
X0126909Y0144919D01*
X0127418Y0144219D01*
X0128030Y0143606D01*
X0128731Y0143098D01*
X0129502Y0142705D01*
X0130325Y0142437D01*
X0131181Y0142302D01*
X0131413Y0142302D01*
X0131413Y0147601D01*
X0131813Y0147601D01*
X0131813Y0142302D01*
X0132046Y0142302D01*
X0132901Y0142437D01*
X0133725Y0142705D01*
X0134496Y0143098D01*
X0135196Y0143606D01*
X0135809Y0144219D01*
X0136317Y0144919D01*
X0136710Y0145690D01*
X0136978Y0146514D01*
X0137113Y0147369D01*
X0137113Y0147602D01*
X0131813Y0147602D01*
X0131813Y0148002D01*
X0131413Y0148002D01*
X0131413Y0147602D01*
X0126113Y0147602D01*
X0126141Y0147192D02*
X0019604Y0147192D01*
X0018329Y0145594D02*
X0126566Y0145594D01*
X0127642Y0143995D02*
X0017264Y0143995D01*
X0016494Y0142397D02*
X0130580Y0142397D01*
X0131413Y0142397D02*
X0131813Y0142397D01*
X0132647Y0142397D02*
X0156180Y0142397D01*
X0157013Y0142397D02*
X0157413Y0142397D01*
X0158247Y0142397D02*
X0189464Y0142397D01*
X0189464Y0143995D02*
X0161185Y0143995D01*
X0162261Y0145594D02*
X0189464Y0145594D01*
X0189464Y0147192D02*
X0162685Y0147192D01*
X0162625Y0148791D02*
X0189946Y0148791D01*
X0195324Y0137601D02*
X0198263Y0137601D01*
X0196664Y0136003D02*
X0194918Y0136003D01*
X0194695Y0129609D02*
X0196888Y0129609D01*
X0198486Y0128010D02*
X0193097Y0128010D01*
X0190477Y0118811D02*
X0188289Y0118811D01*
X0186267Y0117974D01*
X0184720Y0116427D01*
X0183976Y0114630D01*
X0183041Y0115017D01*
X0182654Y0115017D01*
X0181773Y0115898D01*
X0175558Y0115898D01*
X0174503Y0114844D01*
X0174503Y0110203D01*
X0175558Y0109149D01*
X0181773Y0109149D01*
X0182107Y0109483D01*
X0182506Y0109317D01*
X0185598Y0109317D01*
X0186267Y0108648D01*
X0188289Y0107811D01*
X0190477Y0107811D01*
X0192498Y0108648D01*
X0194045Y0110196D01*
X0194883Y0112217D01*
X0194883Y0114405D01*
X0194045Y0116427D01*
X0192498Y0117974D01*
X0190477Y0118811D01*
X0191423Y0118419D02*
X0198742Y0118419D01*
X0196514Y0116821D02*
X0193651Y0116821D01*
X0194544Y0115222D02*
X0195621Y0115222D01*
X0195283Y0113624D02*
X0194883Y0113624D01*
X0194803Y0112025D02*
X0195362Y0112025D01*
X0196024Y0110427D02*
X0194141Y0110427D01*
X0192678Y0108828D02*
X0197488Y0108828D01*
X0198183Y0107229D02*
X0182828Y0107229D01*
X0182828Y0105631D02*
X0198183Y0105631D01*
X0198183Y0104032D02*
X0182828Y0104032D01*
X0182145Y0102434D02*
X0198183Y0102434D01*
X0198183Y0100835D02*
X0188631Y0100835D01*
X0186337Y0100835D02*
X0180619Y0100835D01*
X0181383Y0099237D02*
X0183586Y0099237D01*
X0178524Y0102417D02*
X0177524Y0101417D01*
X0177524Y0091917D01*
X0177484Y0091657D01*
X0178524Y0090917D01*
X0179524Y0089917D01*
X0179524Y0076917D01*
X0185024Y0076917D02*
X0185024Y0089417D01*
X0187024Y0091417D01*
X0192984Y0094441D02*
X0198183Y0094441D01*
X0198183Y0096040D02*
X0192984Y0096040D01*
X0192493Y0097638D02*
X0198183Y0097638D01*
X0198183Y0099237D02*
X0191383Y0099237D01*
X0178524Y0102417D02*
X0178524Y0105417D01*
X0174503Y0105631D02*
X0126371Y0105631D01*
X0126371Y0107229D02*
X0174503Y0107229D01*
X0174503Y0104032D02*
X0125913Y0104032D01*
X0118284Y0104032D02*
X0116684Y0104032D01*
X0116684Y0105631D02*
X0118284Y0105631D01*
X0118284Y0107229D02*
X0116684Y0107229D01*
X0118284Y0108828D02*
X0186088Y0108828D01*
X0185524Y0111917D02*
X0183024Y0111917D01*
X0182524Y0112417D01*
X0179024Y0112417D01*
X0182450Y0115222D02*
X0184221Y0115222D01*
X0185114Y0116821D02*
X0069777Y0116821D01*
X0069777Y0118419D02*
X0187342Y0118419D01*
X0186524Y0112917D02*
X0189024Y0112917D01*
X0186524Y0112917D02*
X0185524Y0111917D01*
X0174503Y0112025D02*
X0126371Y0112025D01*
X0126371Y0110427D02*
X0174503Y0110427D01*
X0174503Y0113624D02*
X0126371Y0113624D01*
X0125792Y0115222D02*
X0174881Y0115222D01*
X0153025Y0126412D02*
X0135802Y0126412D01*
X0136742Y0128010D02*
X0152085Y0128010D01*
X0151713Y0129609D02*
X0137113Y0129609D01*
X0137067Y0131207D02*
X0151760Y0131207D01*
X0152422Y0132806D02*
X0136405Y0132806D01*
X0134989Y0134404D02*
X0153838Y0134404D01*
X0153242Y0143995D02*
X0135585Y0143995D01*
X0136661Y0145594D02*
X0152166Y0145594D01*
X0151741Y0147192D02*
X0137085Y0147192D01*
X0137113Y0148002D02*
X0137113Y0148234D01*
X0136978Y0149089D01*
X0136710Y0149913D01*
X0136317Y0150684D01*
X0135809Y0151385D01*
X0135196Y0151997D01*
X0134496Y0152506D01*
X0133725Y0152899D01*
X0132901Y0153166D01*
X0132046Y0153302D01*
X0131813Y0153302D01*
X0131813Y0148002D01*
X0137113Y0148002D01*
X0137025Y0148791D02*
X0151802Y0148791D01*
X0152359Y0150389D02*
X0136468Y0150389D01*
X0135205Y0151988D02*
X0153621Y0151988D01*
X0157013Y0151988D02*
X0157413Y0151988D01*
X0157413Y0150389D02*
X0157013Y0150389D01*
X0157013Y0148791D02*
X0157413Y0148791D01*
X0157413Y0147192D02*
X0157013Y0147192D01*
X0157013Y0145594D02*
X0157413Y0145594D01*
X0157413Y0143995D02*
X0157013Y0143995D01*
X0131813Y0143995D02*
X0131413Y0143995D01*
X0131413Y0145594D02*
X0131813Y0145594D01*
X0131813Y0147192D02*
X0131413Y0147192D01*
X0131413Y0148791D02*
X0131813Y0148791D01*
X0131813Y0150389D02*
X0131413Y0150389D01*
X0131413Y0151988D02*
X0131813Y0151988D01*
X0128238Y0134404D02*
X0014303Y0134404D01*
X0014224Y0132806D02*
X0060443Y0132806D01*
X0060086Y0131207D02*
X0014224Y0131207D01*
X0014224Y0129609D02*
X0060086Y0129609D01*
X0060086Y0128010D02*
X0014224Y0128010D01*
X0014224Y0126412D02*
X0060086Y0126412D01*
X0060086Y0124813D02*
X0014224Y0124813D01*
X0014224Y0123215D02*
X0060730Y0123215D01*
X0058577Y0121616D02*
X0034079Y0121616D01*
X0034025Y0121821D02*
X0033788Y0122231D01*
X0033452Y0122566D01*
X0033042Y0122803D01*
X0032584Y0122926D01*
X0029347Y0122926D01*
X0029347Y0114426D01*
X0027747Y0114426D01*
X0027747Y0112826D01*
X0022947Y0112826D01*
X0022947Y0105889D01*
X0023070Y0105431D01*
X0023307Y0105021D01*
X0023642Y0104686D01*
X0024052Y0104449D01*
X0024510Y0104326D01*
X0027747Y0104326D01*
X0027747Y0112826D01*
X0029347Y0112826D01*
X0029347Y0104326D01*
X0032584Y0104326D01*
X0033042Y0104449D01*
X0033452Y0104686D01*
X0033788Y0105021D01*
X0034025Y0105431D01*
X0034147Y0105889D01*
X0034147Y0112826D01*
X0029347Y0112826D01*
X0029347Y0114426D01*
X0034147Y0114426D01*
X0034147Y0121363D01*
X0034025Y0121821D01*
X0034147Y0120018D02*
X0058577Y0120018D01*
X0058577Y0118419D02*
X0034147Y0118419D01*
X0034147Y0116821D02*
X0058577Y0116821D01*
X0058577Y0115222D02*
X0034147Y0115222D01*
X0034147Y0112025D02*
X0058577Y0112025D01*
X0058577Y0110427D02*
X0034147Y0110427D01*
X0034147Y0108828D02*
X0058577Y0108828D01*
X0058577Y0107229D02*
X0034147Y0107229D01*
X0034078Y0105631D02*
X0058577Y0105631D01*
X0058577Y0113624D02*
X0029347Y0113624D01*
X0029347Y0115222D02*
X0027747Y0115222D01*
X0027747Y0114426D02*
X0027747Y0122926D01*
X0024510Y0122926D01*
X0024052Y0122803D01*
X0023642Y0122566D01*
X0023307Y0122231D01*
X0023070Y0121821D01*
X0022947Y0121363D01*
X0022947Y0114426D01*
X0027747Y0114426D01*
X0027747Y0113624D02*
X0014224Y0113624D01*
X0014224Y0115222D02*
X0022947Y0115222D01*
X0022947Y0116821D02*
X0014224Y0116821D01*
X0014224Y0118419D02*
X0022947Y0118419D01*
X0022947Y0120018D02*
X0014224Y0120018D01*
X0014224Y0121616D02*
X0023015Y0121616D01*
X0027747Y0121616D02*
X0029347Y0121616D01*
X0029347Y0120018D02*
X0027747Y0120018D01*
X0027747Y0118419D02*
X0029347Y0118419D01*
X0029347Y0116821D02*
X0027747Y0116821D01*
X0027747Y0112025D02*
X0029347Y0112025D01*
X0029347Y0110427D02*
X0027747Y0110427D01*
X0027747Y0108828D02*
X0029347Y0108828D01*
X0029347Y0107229D02*
X0027747Y0107229D01*
X0027747Y0105631D02*
X0029347Y0105631D01*
X0023016Y0105631D02*
X0014224Y0105631D01*
X0014224Y0107229D02*
X0022947Y0107229D01*
X0022947Y0108828D02*
X0014224Y0108828D01*
X0014224Y0110427D02*
X0022947Y0110427D01*
X0022947Y0112025D02*
X0014224Y0112025D01*
X0069341Y0123215D02*
X0071927Y0123215D01*
X0071283Y0124813D02*
X0069985Y0124813D01*
X0069985Y0126412D02*
X0071283Y0126412D01*
X0069985Y0128010D02*
X0075457Y0128010D01*
X0075457Y0128928D02*
X0071283Y0128928D01*
X0071283Y0131940D01*
X0071405Y0132398D01*
X0071642Y0132808D01*
X0071977Y0133143D01*
X0072388Y0133380D01*
X0072846Y0133503D01*
X0075457Y0133503D01*
X0075457Y0128928D01*
X0075457Y0129609D02*
X0077007Y0129609D01*
X0077007Y0131207D02*
X0075457Y0131207D01*
X0075457Y0132806D02*
X0077007Y0132806D01*
X0080824Y0132806D02*
X0126822Y0132806D01*
X0126160Y0131207D02*
X0081182Y0131207D01*
X0081182Y0129609D02*
X0126113Y0129609D01*
X0126485Y0128010D02*
X0077007Y0128010D01*
X0077007Y0126412D02*
X0075457Y0126412D01*
X0075457Y0124813D02*
X0077007Y0124813D01*
X0077007Y0123215D02*
X0075457Y0123215D01*
X0081182Y0126412D02*
X0127425Y0126412D01*
X0071641Y0132806D02*
X0069628Y0132806D01*
X0069985Y0131207D02*
X0071283Y0131207D01*
X0071283Y0129609D02*
X0069985Y0129609D01*
X0129852Y0091244D02*
X0129883Y0091244D01*
X0130784Y0089646D02*
X0131482Y0089646D01*
X0130784Y0088047D02*
X0133080Y0088047D01*
X0134679Y0086449D02*
X0130784Y0086449D01*
X0130784Y0084850D02*
X0136277Y0084850D01*
X0137876Y0083252D02*
X0130784Y0083252D01*
X0130784Y0081653D02*
X0139474Y0081653D01*
X0141073Y0080055D02*
X0130784Y0080055D01*
X0129798Y0078456D02*
X0142671Y0078456D01*
X0144270Y0076858D02*
X0131397Y0076858D01*
X0132995Y0075259D02*
X0145868Y0075259D01*
X0147467Y0073661D02*
X0134594Y0073661D01*
X0139608Y0072062D02*
X0149065Y0072062D01*
X0150664Y0070464D02*
X0141291Y0070464D01*
X0142889Y0068865D02*
X0152262Y0068865D01*
X0153861Y0067267D02*
X0144488Y0067267D01*
X0150507Y0065668D02*
X0155459Y0065668D01*
X0157058Y0064070D02*
X0151331Y0064070D01*
X0151331Y0062471D02*
X0158656Y0062471D01*
X0160255Y0060873D02*
X0151331Y0060873D01*
X0151331Y0059274D02*
X0161853Y0059274D01*
X0162974Y0057676D02*
X0151166Y0057676D01*
X0149909Y0054479D02*
X0148074Y0054479D01*
X0148074Y0056077D02*
X0162974Y0056077D01*
X0162974Y0054479D02*
X0157816Y0054479D01*
X0159011Y0052880D02*
X0162974Y0052880D01*
X0162974Y0051282D02*
X0159599Y0051282D01*
X0159599Y0049683D02*
X0162974Y0049683D01*
X0162878Y0048085D02*
X0159146Y0048085D01*
X0160329Y0046486D02*
X0161279Y0046486D01*
X0154143Y0043289D02*
X0148074Y0043289D01*
X0148074Y0041691D02*
X0153724Y0041691D01*
X0153724Y0040092D02*
X0148074Y0040092D01*
X0148761Y0038494D02*
X0153724Y0038494D01*
X0153724Y0036895D02*
X0150359Y0036895D01*
X0151958Y0035296D02*
X0153724Y0035296D01*
X0153724Y0033698D02*
X0153556Y0033698D01*
X0151983Y0044888D02*
X0148074Y0044888D01*
X0148074Y0046486D02*
X0149582Y0046486D01*
X0148578Y0048085D02*
X0148074Y0048085D01*
X0148074Y0049683D02*
X0148125Y0049683D01*
X0148074Y0051282D02*
X0148125Y0051282D01*
X0148074Y0052880D02*
X0148713Y0052880D01*
X0136086Y0057676D02*
X0132186Y0057676D01*
X0132434Y0059274D02*
X0135920Y0059274D01*
X0125306Y0059274D02*
X0124150Y0059274D01*
X0124150Y0057676D02*
X0125306Y0057676D01*
X0117270Y0057676D02*
X0116438Y0057676D01*
X0116686Y0059274D02*
X0117023Y0059274D01*
X0117023Y0062471D02*
X0116686Y0062471D01*
X0116686Y0064070D02*
X0117023Y0064070D01*
X0117942Y0065668D02*
X0115767Y0065668D01*
X0109558Y0065668D02*
X0108402Y0065668D01*
X0108402Y0064070D02*
X0109558Y0064070D01*
X0109558Y0062471D02*
X0108402Y0062471D01*
X0101275Y0062471D02*
X0097788Y0062471D01*
X0097788Y0064070D02*
X0101275Y0064070D01*
X0102194Y0065668D02*
X0096964Y0065668D01*
X0083474Y0067267D02*
X0069580Y0067267D01*
X0069580Y0065668D02*
X0083201Y0065668D01*
X0082377Y0064070D02*
X0069580Y0064070D01*
X0069437Y0068865D02*
X0083474Y0068865D01*
X0083164Y0070464D02*
X0014224Y0070464D01*
X0014224Y0072062D02*
X0078339Y0072062D01*
X0075950Y0073661D02*
X0014224Y0073661D01*
X0014224Y0075259D02*
X0074952Y0075259D01*
X0074503Y0076858D02*
X0014224Y0076858D01*
X0014224Y0078456D02*
X0074503Y0078456D01*
X0075095Y0080055D02*
X0014224Y0080055D01*
X0014224Y0081653D02*
X0076296Y0081653D01*
X0084184Y0081653D02*
X0092946Y0081653D01*
X0091348Y0080055D02*
X0085385Y0080055D01*
X0085977Y0078456D02*
X0089749Y0078456D01*
X0088151Y0076858D02*
X0085977Y0076858D01*
X0099974Y0080055D02*
X0104184Y0080055D01*
X0104184Y0081653D02*
X0101573Y0081653D01*
X0124150Y0065668D02*
X0125306Y0065668D01*
X0125306Y0064070D02*
X0124150Y0064070D01*
X0124150Y0062471D02*
X0125306Y0062471D01*
X0109558Y0059274D02*
X0108402Y0059274D01*
X0108402Y0057676D02*
X0109558Y0057676D01*
X0151298Y0078456D02*
X0171945Y0078456D01*
X0171945Y0076858D02*
X0152897Y0076858D01*
X0154495Y0075259D02*
X0171945Y0075259D01*
X0171945Y0073661D02*
X0156094Y0073661D01*
X0157692Y0072062D02*
X0171945Y0072062D01*
X0173321Y0070464D02*
X0159291Y0070464D01*
X0160889Y0068865D02*
X0228243Y0068865D01*
X0228243Y0067267D02*
X0162488Y0067267D01*
X0164086Y0065668D02*
X0214994Y0065668D01*
X0213043Y0064070D02*
X0165685Y0064070D01*
X0167283Y0062471D02*
X0212226Y0062471D01*
X0211905Y0060873D02*
X0192945Y0060873D01*
X0192945Y0059274D02*
X0211963Y0059274D01*
X0212625Y0057676D02*
X0193518Y0057676D01*
X0195116Y0056077D02*
X0212431Y0056077D01*
X0210832Y0054479D02*
X0203485Y0054479D01*
X0204911Y0052880D02*
X0210724Y0052880D01*
X0210724Y0051282D02*
X0205573Y0051282D01*
X0205662Y0049683D02*
X0210724Y0049683D01*
X0209438Y0048085D02*
X0205372Y0048085D01*
X0204599Y0046486D02*
X0207840Y0046486D01*
X0206241Y0044888D02*
X0202755Y0044888D01*
X0204643Y0043289D02*
X0199648Y0043289D01*
X0198050Y0041691D02*
X0203044Y0041691D01*
X0201446Y0040092D02*
X0196451Y0040092D01*
X0194852Y0038494D02*
X0199847Y0038494D01*
X0198249Y0036895D02*
X0193964Y0036895D01*
X0196564Y0035296D02*
X0196650Y0035296D01*
X0201557Y0033698D02*
X0212991Y0033698D01*
X0214589Y0035296D02*
X0203155Y0035296D01*
X0204754Y0036895D02*
X0216188Y0036895D01*
X0217786Y0038494D02*
X0206352Y0038494D01*
X0207951Y0040092D02*
X0219385Y0040092D01*
X0220983Y0041691D02*
X0209550Y0041691D01*
X0211148Y0043289D02*
X0222582Y0043289D01*
X0224181Y0044888D02*
X0212747Y0044888D01*
X0214345Y0046486D02*
X0225779Y0046486D01*
X0227378Y0048085D02*
X0215324Y0048085D01*
X0215324Y0049683D02*
X0228976Y0049683D01*
X0230575Y0051282D02*
X0215324Y0051282D01*
X0215739Y0052880D02*
X0222133Y0052880D01*
X0220214Y0054479D02*
X0217338Y0054479D01*
X0224914Y0052880D02*
X0229248Y0052880D01*
X0228243Y0054479D02*
X0226834Y0054479D01*
X0227324Y0056077D02*
X0228243Y0056077D01*
X0228243Y0057676D02*
X0227115Y0057676D01*
X0226041Y0059274D02*
X0228243Y0059274D01*
X0228243Y0060873D02*
X0223379Y0060873D01*
X0223058Y0062471D02*
X0228243Y0062471D01*
X0228243Y0064070D02*
X0222241Y0064070D01*
X0220289Y0065668D02*
X0228243Y0065668D01*
X0237749Y0065668D02*
X0237974Y0065668D01*
X0237974Y0064070D02*
X0237749Y0064070D01*
X0237749Y0062471D02*
X0237974Y0062471D01*
X0237974Y0060873D02*
X0237749Y0060873D01*
X0237749Y0059274D02*
X0237974Y0059274D01*
X0237969Y0057676D02*
X0237749Y0057676D01*
X0244074Y0057676D02*
X0306199Y0057676D01*
X0306199Y0059274D02*
X0244074Y0059274D01*
X0244074Y0060873D02*
X0306199Y0060873D01*
X0306199Y0062471D02*
X0244074Y0062471D01*
X0244074Y0064070D02*
X0306199Y0064070D01*
X0306199Y0065668D02*
X0286481Y0065668D01*
X0286463Y0065650D02*
X0286799Y0065985D01*
X0287036Y0066396D01*
X0287158Y0066854D01*
X0287158Y0078102D01*
X0274347Y0078102D01*
X0274347Y0079702D01*
X0272747Y0079702D01*
X0272747Y0092513D01*
X0261499Y0092513D01*
X0261041Y0092390D01*
X0260631Y0092153D01*
X0260296Y0091818D01*
X0260059Y0091407D01*
X0259936Y0090950D01*
X0259936Y0079702D01*
X0272747Y0079702D01*
X0272747Y0078102D01*
X0259936Y0078102D01*
X0259936Y0066854D01*
X0260059Y0066396D01*
X0260296Y0065985D01*
X0260631Y0065650D01*
X0261041Y0065413D01*
X0261499Y0065291D01*
X0272747Y0065291D01*
X0272747Y0078102D01*
X0274347Y0078102D01*
X0274347Y0065291D01*
X0285595Y0065291D01*
X0286053Y0065413D01*
X0286463Y0065650D01*
X0287158Y0067267D02*
X0306199Y0067267D01*
X0306199Y0068865D02*
X0287158Y0068865D01*
X0287158Y0070464D02*
X0306199Y0070464D01*
X0306199Y0072062D02*
X0287158Y0072062D01*
X0287158Y0073661D02*
X0306199Y0073661D01*
X0306199Y0075259D02*
X0287158Y0075259D01*
X0287158Y0076858D02*
X0306199Y0076858D01*
X0306199Y0078456D02*
X0274347Y0078456D01*
X0274347Y0079702D02*
X0287158Y0079702D01*
X0287158Y0090950D01*
X0287036Y0091407D01*
X0286799Y0091818D01*
X0286463Y0092153D01*
X0286053Y0092390D01*
X0285595Y0092513D01*
X0274347Y0092513D01*
X0274347Y0079702D01*
X0274347Y0080055D02*
X0272747Y0080055D01*
X0272747Y0081653D02*
X0274347Y0081653D01*
X0274347Y0083252D02*
X0272747Y0083252D01*
X0272747Y0084850D02*
X0274347Y0084850D01*
X0274347Y0086449D02*
X0272747Y0086449D01*
X0272747Y0088047D02*
X0274347Y0088047D01*
X0274347Y0089646D02*
X0272747Y0089646D01*
X0272747Y0091244D02*
X0274347Y0091244D01*
X0260763Y0092843D02*
X0306199Y0092843D01*
X0306199Y0094441D02*
X0286361Y0094441D01*
X0287960Y0096040D02*
X0306199Y0096040D01*
X0306199Y0097638D02*
X0289558Y0097638D01*
X0291157Y0099237D02*
X0306199Y0099237D01*
X0306199Y0100835D02*
X0292755Y0100835D01*
X0294354Y0102434D02*
X0306199Y0102434D01*
X0306199Y0104032D02*
X0295952Y0104032D01*
X0287079Y0091244D02*
X0306199Y0091244D01*
X0306199Y0089646D02*
X0287158Y0089646D01*
X0287158Y0088047D02*
X0306199Y0088047D01*
X0306199Y0086449D02*
X0287158Y0086449D01*
X0287158Y0084850D02*
X0306199Y0084850D01*
X0306199Y0083252D02*
X0287158Y0083252D01*
X0287158Y0081653D02*
X0306199Y0081653D01*
X0306199Y0080055D02*
X0287158Y0080055D01*
X0274347Y0076858D02*
X0272747Y0076858D01*
X0272747Y0078456D02*
X0246376Y0078456D01*
X0244777Y0076858D02*
X0259936Y0076858D01*
X0259936Y0075259D02*
X0244074Y0075259D01*
X0244074Y0073661D02*
X0259936Y0073661D01*
X0259936Y0072062D02*
X0244074Y0072062D01*
X0244074Y0070464D02*
X0259936Y0070464D01*
X0259936Y0068865D02*
X0244074Y0068865D01*
X0244074Y0067267D02*
X0259936Y0067267D01*
X0260613Y0065668D02*
X0244074Y0065668D01*
X0237974Y0067267D02*
X0237749Y0067267D01*
X0237749Y0068865D02*
X0237974Y0068865D01*
X0237974Y0070464D02*
X0237749Y0070464D01*
X0237749Y0072062D02*
X0237974Y0072062D01*
X0237974Y0073661D02*
X0237749Y0073661D01*
X0237749Y0075259D02*
X0237974Y0075259D01*
X0237974Y0076858D02*
X0237749Y0076858D01*
X0237749Y0078456D02*
X0238153Y0078456D01*
X0237749Y0080055D02*
X0239348Y0080055D01*
X0240946Y0081653D02*
X0237749Y0081653D01*
X0237749Y0083252D02*
X0242545Y0083252D01*
X0244143Y0084850D02*
X0237749Y0084850D01*
X0237749Y0086449D02*
X0245742Y0086449D01*
X0247340Y0088047D02*
X0237749Y0088047D01*
X0249573Y0081653D02*
X0259936Y0081653D01*
X0259936Y0080055D02*
X0247974Y0080055D01*
X0251171Y0083252D02*
X0259936Y0083252D01*
X0259936Y0084850D02*
X0252770Y0084850D01*
X0254368Y0086449D02*
X0259936Y0086449D01*
X0259936Y0088047D02*
X0255967Y0088047D01*
X0257566Y0089646D02*
X0259936Y0089646D01*
X0260015Y0091244D02*
X0259164Y0091244D01*
X0272747Y0075259D02*
X0274347Y0075259D01*
X0274347Y0073661D02*
X0272747Y0073661D01*
X0272747Y0072062D02*
X0274347Y0072062D01*
X0274347Y0070464D02*
X0272747Y0070464D01*
X0272747Y0068865D02*
X0274347Y0068865D01*
X0274347Y0067267D02*
X0272747Y0067267D01*
X0272747Y0065668D02*
X0274347Y0065668D01*
X0281112Y0052880D02*
X0245935Y0052880D01*
X0247072Y0051282D02*
X0279976Y0051282D01*
X0279724Y0049683D02*
X0247324Y0049683D01*
X0240113Y0048221D02*
X0236345Y0048221D01*
X0235291Y0047167D01*
X0235291Y0039770D01*
X0236345Y0038716D01*
X0236724Y0038716D01*
X0236724Y0032370D01*
X0234071Y0029717D01*
X0233676Y0029323D01*
X0233468Y0029323D01*
X0231447Y0028485D01*
X0229900Y0026938D01*
X0229062Y0024917D01*
X0229062Y0022729D01*
X0229900Y0020707D01*
X0231447Y0019160D01*
X0233468Y0018323D01*
X0235656Y0018323D01*
X0237678Y0019160D01*
X0239225Y0020707D01*
X0240062Y0022729D01*
X0240062Y0024917D01*
X0239225Y0026938D01*
X0238511Y0027652D01*
X0241324Y0030465D01*
X0241324Y0038716D01*
X0276724Y0038716D01*
X0276724Y0031965D01*
X0282175Y0026513D01*
X0280791Y0025130D01*
X0277904Y0028017D01*
X0273679Y0028017D01*
X0271863Y0026202D01*
X0271143Y0026922D01*
X0266502Y0026922D01*
X0265448Y0025868D01*
X0265448Y0019652D01*
X0266502Y0018598D01*
X0271143Y0018598D01*
X0272021Y0019475D01*
X0273679Y0017817D01*
X0277904Y0017817D01*
X0280791Y0020705D01*
X0283679Y0017817D01*
X0287904Y0017817D01*
X0289204Y0019117D01*
X0291976Y0019117D01*
X0293324Y0020465D01*
X0294188Y0021329D01*
X0296028Y0020566D01*
X0298310Y0020566D01*
X0300419Y0021440D01*
X0302033Y0023053D01*
X0302906Y0025162D01*
X0302906Y0027444D01*
X0302033Y0029553D01*
X0300419Y0031167D01*
X0298310Y0032040D01*
X0296028Y0032040D01*
X0293920Y0031167D01*
X0292306Y0029553D01*
X0291432Y0027444D01*
X0291432Y0025162D01*
X0291457Y0025103D01*
X0290891Y0024538D01*
X0290891Y0025030D01*
X0287904Y0028017D01*
X0287176Y0028017D01*
X0286976Y0028217D01*
X0281324Y0033870D01*
X0281324Y0038716D01*
X0286448Y0038716D01*
X0286224Y0038173D01*
X0286224Y0036661D01*
X0286802Y0035265D01*
X0287871Y0034196D01*
X0289268Y0033617D01*
X0290779Y0033617D01*
X0292176Y0034196D01*
X0293245Y0035265D01*
X0293824Y0036661D01*
X0293824Y0037965D01*
X0294575Y0038716D01*
X0301379Y0038716D01*
X0301480Y0038816D01*
X0301854Y0038716D01*
X0303776Y0038716D01*
X0303776Y0043383D01*
X0303948Y0043383D01*
X0303948Y0038716D01*
X0305871Y0038716D01*
X0306199Y0038804D01*
X0306199Y0014617D01*
X0200234Y0014617D01*
X0200751Y0014832D01*
X0200787Y0014867D01*
X0202130Y0014867D01*
X0203251Y0015332D01*
X0204109Y0016190D01*
X0236287Y0048367D01*
X0236630Y0048367D01*
X0237751Y0048832D01*
X0238609Y0049690D01*
X0239816Y0050896D01*
X0239724Y0050673D01*
X0239724Y0049161D01*
X0240113Y0048221D01*
X0239724Y0049683D02*
X0238603Y0049683D01*
X0236208Y0048085D02*
X0236004Y0048085D01*
X0235291Y0046486D02*
X0234406Y0046486D01*
X0235291Y0044888D02*
X0232807Y0044888D01*
X0231209Y0043289D02*
X0235291Y0043289D01*
X0235291Y0041691D02*
X0229610Y0041691D01*
X0228012Y0040092D02*
X0235291Y0040092D01*
X0236724Y0038494D02*
X0226413Y0038494D01*
X0224815Y0036895D02*
X0236724Y0036895D01*
X0236724Y0035296D02*
X0223216Y0035296D01*
X0221618Y0033698D02*
X0236724Y0033698D01*
X0236453Y0032099D02*
X0220019Y0032099D01*
X0218421Y0030501D02*
X0234855Y0030501D01*
X0232453Y0028902D02*
X0225308Y0028902D01*
X0225273Y0028920D02*
X0224450Y0029187D01*
X0223595Y0029323D01*
X0223362Y0029323D01*
X0223362Y0024023D01*
X0222962Y0024023D01*
X0222962Y0023623D01*
X0217662Y0023623D01*
X0217662Y0023390D01*
X0217798Y0022535D01*
X0218065Y0021712D01*
X0218458Y0020940D01*
X0218967Y0020240D01*
X0219579Y0019628D01*
X0220280Y0019119D01*
X0221051Y0018726D01*
X0221874Y0018458D01*
X0222729Y0018323D01*
X0222962Y0018323D01*
X0222962Y0023623D01*
X0223362Y0023623D01*
X0223362Y0018323D01*
X0223595Y0018323D01*
X0224450Y0018458D01*
X0225273Y0018726D01*
X0226045Y0019119D01*
X0226745Y0019628D01*
X0227357Y0020240D01*
X0227866Y0020940D01*
X0228259Y0021712D01*
X0228527Y0022535D01*
X0228662Y0023390D01*
X0228662Y0023623D01*
X0223362Y0023623D01*
X0223362Y0024023D01*
X0228662Y0024023D01*
X0228662Y0024256D01*
X0228527Y0025111D01*
X0228259Y0025934D01*
X0227866Y0026705D01*
X0227357Y0027406D01*
X0226745Y0028018D01*
X0226045Y0028527D01*
X0225273Y0028920D01*
X0223362Y0028902D02*
X0222962Y0028902D01*
X0222962Y0029323D02*
X0222729Y0029323D01*
X0221874Y0029187D01*
X0221051Y0028920D01*
X0220280Y0028527D01*
X0219579Y0028018D01*
X0218967Y0027406D01*
X0218458Y0026705D01*
X0218065Y0025934D01*
X0217798Y0025111D01*
X0217662Y0024256D01*
X0217662Y0024023D01*
X0222962Y0024023D01*
X0222962Y0029323D01*
X0221017Y0028902D02*
X0216822Y0028902D01*
X0215224Y0027304D02*
X0218893Y0027304D01*
X0217991Y0025705D02*
X0213625Y0025705D01*
X0212027Y0024107D02*
X0217662Y0024107D01*
X0217806Y0022508D02*
X0210428Y0022508D01*
X0208830Y0020910D02*
X0218480Y0020910D01*
X0220015Y0019311D02*
X0207231Y0019311D01*
X0205633Y0017713D02*
X0306199Y0017713D01*
X0306199Y0019311D02*
X0292170Y0019311D01*
X0293769Y0020910D02*
X0295198Y0020910D01*
X0299140Y0020910D02*
X0306199Y0020910D01*
X0306199Y0022508D02*
X0301488Y0022508D01*
X0302469Y0024107D02*
X0306199Y0024107D01*
X0306199Y0025705D02*
X0302906Y0025705D01*
X0302906Y0027304D02*
X0306199Y0027304D01*
X0306199Y0028902D02*
X0302302Y0028902D01*
X0301085Y0030501D02*
X0306199Y0030501D01*
X0306199Y0032099D02*
X0283094Y0032099D01*
X0284693Y0030501D02*
X0293254Y0030501D01*
X0292036Y0028902D02*
X0286291Y0028902D01*
X0288617Y0027304D02*
X0291432Y0027304D01*
X0291432Y0025705D02*
X0290216Y0025705D01*
X0281367Y0025705D02*
X0280216Y0025705D01*
X0281384Y0027304D02*
X0278617Y0027304D01*
X0279786Y0028902D02*
X0239761Y0028902D01*
X0238859Y0027304D02*
X0272965Y0027304D01*
X0278187Y0030501D02*
X0241324Y0030501D01*
X0241324Y0032099D02*
X0276724Y0032099D01*
X0276724Y0033698D02*
X0241324Y0033698D01*
X0241324Y0035296D02*
X0276724Y0035296D01*
X0276724Y0036895D02*
X0241324Y0036895D01*
X0241324Y0038494D02*
X0276724Y0038494D01*
X0281324Y0038494D02*
X0286356Y0038494D01*
X0286224Y0036895D02*
X0281324Y0036895D01*
X0281324Y0035296D02*
X0286789Y0035296D01*
X0289073Y0033698D02*
X0281496Y0033698D01*
X0290974Y0033698D02*
X0306199Y0033698D01*
X0306199Y0035296D02*
X0293258Y0035296D01*
X0293824Y0036895D02*
X0306199Y0036895D01*
X0306199Y0038494D02*
X0294352Y0038494D01*
X0303776Y0040092D02*
X0303948Y0040092D01*
X0303948Y0041691D02*
X0303776Y0041691D01*
X0303776Y0043289D02*
X0303948Y0043289D01*
X0303948Y0044888D02*
X0303776Y0044888D01*
X0303776Y0046486D02*
X0303948Y0046486D01*
X0303948Y0048085D02*
X0303776Y0048085D01*
X0306199Y0049683D02*
X0292324Y0049683D01*
X0292072Y0051282D02*
X0306199Y0051282D01*
X0306199Y0052880D02*
X0290935Y0052880D01*
X0286112Y0052880D02*
X0285935Y0052880D01*
X0306199Y0054479D02*
X0243398Y0054479D01*
X0244074Y0056077D02*
X0306199Y0056077D01*
X0264751Y0026227D02*
X0264416Y0026562D01*
X0264006Y0026799D01*
X0263548Y0026922D01*
X0261736Y0026922D01*
X0259924Y0026922D01*
X0259467Y0026799D01*
X0259056Y0026562D01*
X0258721Y0026227D01*
X0258484Y0025817D01*
X0258361Y0025359D01*
X0258361Y0022760D01*
X0261736Y0022760D01*
X0261736Y0022760D01*
X0261736Y0026922D01*
X0261736Y0022760D01*
X0261736Y0022760D01*
X0258361Y0022760D01*
X0258361Y0020161D01*
X0258484Y0019703D01*
X0258721Y0019292D01*
X0259056Y0018957D01*
X0259467Y0018720D01*
X0259924Y0018598D01*
X0261736Y0018598D01*
X0261736Y0022760D01*
X0261736Y0022760D01*
X0265111Y0022760D01*
X0265111Y0025359D01*
X0264988Y0025817D01*
X0264751Y0026227D01*
X0265018Y0025705D02*
X0265448Y0025705D01*
X0265448Y0024107D02*
X0265111Y0024107D01*
X0265111Y0022760D02*
X0261736Y0022760D01*
X0261736Y0022760D01*
X0261736Y0018598D01*
X0263548Y0018598D01*
X0264006Y0018720D01*
X0264416Y0018957D01*
X0264751Y0019292D01*
X0264988Y0019703D01*
X0265111Y0020161D01*
X0265111Y0022760D01*
X0265111Y0022508D02*
X0265448Y0022508D01*
X0265448Y0020910D02*
X0265111Y0020910D01*
X0264762Y0019311D02*
X0265789Y0019311D01*
X0261736Y0019311D02*
X0261736Y0019311D01*
X0261736Y0020910D02*
X0261736Y0020910D01*
X0261736Y0022508D02*
X0261736Y0022508D01*
X0261736Y0024107D02*
X0261736Y0024107D01*
X0261736Y0025705D02*
X0261736Y0025705D01*
X0258454Y0025705D02*
X0239736Y0025705D01*
X0240062Y0024107D02*
X0258361Y0024107D01*
X0258361Y0022508D02*
X0239971Y0022508D01*
X0239309Y0020910D02*
X0258361Y0020910D01*
X0258710Y0019311D02*
X0237829Y0019311D01*
X0231295Y0019311D02*
X0226310Y0019311D01*
X0227844Y0020910D02*
X0229816Y0020910D01*
X0229153Y0022508D02*
X0228518Y0022508D01*
X0228662Y0024107D02*
X0229062Y0024107D01*
X0229389Y0025705D02*
X0228334Y0025705D01*
X0227431Y0027304D02*
X0230265Y0027304D01*
X0223362Y0027304D02*
X0222962Y0027304D01*
X0222962Y0025705D02*
X0223362Y0025705D01*
X0223362Y0024107D02*
X0222962Y0024107D01*
X0222962Y0022508D02*
X0223362Y0022508D01*
X0223362Y0020910D02*
X0222962Y0020910D01*
X0222962Y0019311D02*
X0223362Y0019311D01*
X0206597Y0027304D02*
X0198969Y0027304D01*
X0198969Y0025705D02*
X0204998Y0025705D01*
X0203400Y0024107D02*
X0198969Y0024107D01*
X0198969Y0022508D02*
X0201801Y0022508D01*
X0198778Y0020910D02*
X0198259Y0020910D01*
X0192930Y0020910D02*
X0191172Y0020910D01*
X0191883Y0022508D02*
X0192220Y0022508D01*
X0192220Y0024107D02*
X0191883Y0024107D01*
X0191883Y0025705D02*
X0192220Y0025705D01*
X0192220Y0027304D02*
X0191883Y0027304D01*
X0191661Y0028902D02*
X0190964Y0028902D01*
X0197824Y0028902D02*
X0208195Y0028902D01*
X0209794Y0030501D02*
X0198360Y0030501D01*
X0199958Y0032099D02*
X0211392Y0032099D01*
X0204034Y0016114D02*
X0306199Y0016114D01*
X0282185Y0019311D02*
X0279398Y0019311D01*
X0272185Y0019311D02*
X0271857Y0019311D01*
X0182974Y0049681D02*
X0181760Y0048467D01*
X0179917Y0048467D01*
X0178796Y0048003D01*
X0178760Y0047967D01*
X0178287Y0047967D01*
X0176751Y0049503D01*
X0176001Y0049814D01*
X0176890Y0049814D01*
X0177445Y0050368D01*
X0177640Y0050173D01*
X0178050Y0049936D01*
X0178508Y0049814D01*
X0179945Y0049814D01*
X0181382Y0049814D01*
X0181840Y0049936D01*
X0182250Y0050173D01*
X0182445Y0050368D01*
X0182974Y0049839D01*
X0182974Y0049681D01*
X0182974Y0049683D02*
X0176316Y0049683D01*
X0178170Y0048085D02*
X0178993Y0048085D01*
X0179945Y0049814D02*
X0179945Y0055964D01*
X0179945Y0049814D01*
X0179945Y0051282D02*
X0179945Y0051282D01*
X0179945Y0052880D02*
X0179945Y0052880D01*
X0179945Y0054479D02*
X0179945Y0054479D01*
X0179945Y0055964D02*
X0179945Y0055964D01*
X0179945Y0056077D02*
X0179945Y0056077D01*
X0179945Y0057676D02*
X0179945Y0057676D01*
X0179945Y0059274D02*
X0179945Y0059274D01*
X0179945Y0060873D02*
X0179945Y0060873D01*
X0171945Y0060873D02*
X0168722Y0060873D01*
X0171945Y0080055D02*
X0149699Y0080055D01*
X0148101Y0081653D02*
X0172093Y0081653D01*
X0216267Y0110427D02*
X0235500Y0110427D01*
X0235291Y0112025D02*
X0214669Y0112025D01*
X0213070Y0113624D02*
X0233065Y0113624D01*
X0231466Y0115222D02*
X0211472Y0115222D01*
X0261178Y0121616D02*
X0289779Y0121616D01*
X0289779Y0123215D02*
X0262484Y0123215D01*
X0263114Y0124813D02*
X0289779Y0124813D01*
X0290578Y0126412D02*
X0263114Y0126412D01*
X0262665Y0128010D02*
X0289857Y0128010D01*
X0289857Y0129609D02*
X0261614Y0129609D01*
X0261769Y0131207D02*
X0289857Y0131207D01*
X0289857Y0132806D02*
X0263314Y0132806D01*
X0263976Y0134404D02*
X0302474Y0134404D01*
X0301625Y0136003D02*
X0299853Y0136003D01*
X0300319Y0134402D02*
X0298507Y0134402D01*
X0298049Y0134280D01*
X0297639Y0134043D01*
X0297304Y0133708D01*
X0297067Y0133297D01*
X0296944Y0132839D01*
X0296944Y0130240D01*
X0300319Y0130240D01*
X0300319Y0130240D01*
X0300319Y0130240D01*
X0300319Y0134402D01*
X0300319Y0132806D02*
X0300319Y0132806D01*
X0300319Y0131207D02*
X0300319Y0131207D01*
X0296944Y0131207D02*
X0296607Y0131207D01*
X0296607Y0129609D02*
X0296944Y0129609D01*
X0296944Y0128010D02*
X0296607Y0128010D01*
X0296607Y0132806D02*
X0296944Y0132806D01*
X0295273Y0136003D02*
X0264114Y0136003D01*
X0263834Y0137601D02*
X0293112Y0137601D01*
X0292208Y0139200D02*
X0263023Y0139200D01*
X0260994Y0140798D02*
X0291826Y0140798D01*
X0291826Y0142397D02*
X0261918Y0142397D01*
X0262801Y0143995D02*
X0292485Y0143995D01*
X0293780Y0145594D02*
X0263114Y0145594D01*
X0263114Y0146031D02*
X0263114Y0146264D01*
X0262979Y0147119D01*
X0262711Y0147942D01*
X0262318Y0148713D01*
X0261809Y0149414D01*
X0261197Y0150026D01*
X0260497Y0150535D01*
X0259725Y0150928D01*
X0258902Y0151195D01*
X0258047Y0151331D01*
X0257814Y0151331D01*
X0257814Y0146031D01*
X0263114Y0146031D01*
X0262955Y0147192D02*
X0306199Y0147192D01*
X0306199Y0145594D02*
X0301346Y0145594D01*
X0302641Y0143995D02*
X0306199Y0143995D01*
X0306199Y0142397D02*
X0303301Y0142397D01*
X0305456Y0140798D02*
X0306199Y0140798D01*
X0306199Y0148791D02*
X0262262Y0148791D01*
X0260697Y0150389D02*
X0306199Y0150389D01*
X0257814Y0150389D02*
X0257414Y0150389D01*
X0257414Y0148791D02*
X0257814Y0148791D01*
X0257814Y0147192D02*
X0257414Y0147192D01*
X0029347Y0059274D02*
X0027747Y0059274D01*
X0027747Y0057676D02*
X0029347Y0057676D01*
X0029347Y0056077D02*
X0027747Y0056077D01*
X0027747Y0054479D02*
X0029347Y0054479D01*
X0029347Y0052880D02*
X0027747Y0052880D01*
X0027747Y0051282D02*
X0029347Y0051282D01*
X0029937Y0049683D02*
X0026045Y0049683D01*
X0027663Y0048085D02*
X0028382Y0048085D01*
X0023275Y0048085D02*
X0022875Y0048085D01*
X0022875Y0049683D02*
X0023275Y0049683D01*
X0024118Y0051282D02*
X0014224Y0051282D01*
X0014224Y0052880D02*
X0022947Y0052880D01*
X0022947Y0054479D02*
X0014224Y0054479D01*
X0014224Y0056077D02*
X0022947Y0056077D01*
X0022947Y0057676D02*
X0014224Y0057676D01*
X0014224Y0059274D02*
X0022947Y0059274D01*
X0020105Y0049683D02*
X0014224Y0049683D01*
X0014224Y0048085D02*
X0018487Y0048085D01*
X0017761Y0046486D02*
X0014224Y0046486D01*
X0014224Y0044888D02*
X0017575Y0044888D01*
X0017575Y0043289D02*
X0014224Y0043289D01*
X0014224Y0041691D02*
X0017575Y0041691D01*
X0017575Y0041142D02*
X0017575Y0037210D01*
X0017710Y0036355D01*
X0017978Y0035531D01*
X0018371Y0034760D01*
X0018880Y0034060D01*
X0019492Y0033447D01*
X0020192Y0032938D01*
X0020964Y0032545D01*
X0021787Y0032278D01*
X0022642Y0032143D01*
X0022875Y0032143D01*
X0022875Y0041142D01*
X0017575Y0041142D01*
X0017575Y0040092D02*
X0014224Y0040092D01*
X0014224Y0038494D02*
X0017575Y0038494D01*
X0017625Y0036895D02*
X0014224Y0036895D01*
X0014293Y0035296D02*
X0018097Y0035296D01*
X0019241Y0033698D02*
X0014450Y0033698D01*
X0022875Y0033698D02*
X0023275Y0033698D01*
X0023275Y0035296D02*
X0022875Y0035296D01*
X0022875Y0036895D02*
X0023275Y0036895D01*
X0023275Y0038494D02*
X0022875Y0038494D01*
X0022875Y0040092D02*
X0023275Y0040092D01*
X0023275Y0041691D02*
X0022875Y0041691D01*
X0022875Y0043289D02*
X0023275Y0043289D01*
X0023275Y0044888D02*
X0022875Y0044888D01*
X0022875Y0046486D02*
X0023275Y0046486D01*
X0028052Y0035296D02*
X0028093Y0035296D01*
X0029241Y0033698D02*
X0026908Y0033698D01*
D29*
X0118035Y0037720D03*
X0158024Y0043417D03*
X0179453Y0049531D03*
X0170524Y0055917D03*
X0223524Y0056417D03*
X0243524Y0049917D03*
X0283524Y0049917D03*
X0288524Y0049917D03*
X0290024Y0037417D03*
X0250713Y0021579D03*
X0180524Y0024917D03*
X0246776Y0101894D03*
X0094020Y0119610D03*
D30*
X0066024Y0113417D02*
X0064177Y0113390D01*
X0064524Y0113417D01*
X0065024Y0113917D01*
X0065024Y0127917D01*
X0065035Y0128154D01*
X0066024Y0113417D02*
X0097524Y0081917D01*
X0101024Y0085417D01*
X0108024Y0085417D01*
X0108384Y0085166D01*
X0108524Y0086417D01*
X0108524Y0090917D01*
X0112524Y0094917D01*
X0130524Y0094917D01*
X0166024Y0059417D01*
X0166024Y0048417D01*
X0166524Y0047417D01*
X0173524Y0047417D01*
X0174024Y0046917D01*
X0175024Y0046917D01*
X0177024Y0044917D01*
X0178524Y0044917D01*
X0179274Y0044167D01*
X0180524Y0045417D01*
X0183024Y0045417D01*
X0186024Y0048417D01*
X0186024Y0051417D01*
X0185024Y0052417D01*
X0185024Y0055917D01*
X0184945Y0055964D01*
X0166524Y0047417D02*
X0162524Y0043417D01*
X0162524Y0038508D01*
X0158024Y0024917D02*
X0145024Y0037917D01*
X0145024Y0059417D01*
X0144024Y0060417D01*
X0143626Y0061343D01*
X0143524Y0061417D01*
X0142024Y0062917D01*
X0142024Y0065417D01*
X0138024Y0069417D01*
X0134524Y0069417D01*
X0126524Y0077417D01*
X0126524Y0084917D01*
X0126584Y0085166D01*
X0097524Y0081917D02*
X0087524Y0071917D01*
X0086524Y0071417D01*
X0086524Y0065417D01*
X0090524Y0061417D01*
X0090083Y0061343D01*
X0086524Y0071417D02*
X0080524Y0077417D01*
X0080240Y0077484D01*
X0063980Y0060476D02*
X0063524Y0060417D01*
X0063524Y0050917D01*
X0061524Y0048917D01*
X0061524Y0043417D01*
X0060909Y0042366D01*
X0061024Y0041917D01*
X0071024Y0041917D01*
X0071264Y0041508D01*
X0044768Y0042366D02*
X0044524Y0042417D01*
X0034524Y0042417D01*
X0033524Y0041417D01*
X0033075Y0041343D01*
X0158024Y0024917D02*
X0167524Y0024917D01*
X0168823Y0024728D01*
X0169024Y0023917D01*
X0169024Y0020417D01*
X0172024Y0017417D01*
X0179524Y0017417D01*
X0181774Y0019667D01*
X0183524Y0017917D01*
X0184524Y0017917D01*
X0185024Y0017417D01*
X0199024Y0017417D01*
X0199524Y0017917D01*
X0201524Y0017917D01*
X0235024Y0051417D01*
X0236024Y0051417D01*
X0241024Y0056417D01*
X0241024Y0077417D01*
X0259524Y0095917D01*
X0283524Y0095917D01*
X0298024Y0110417D01*
X0298024Y0113417D01*
X0298862Y0114335D01*
X0299024Y0114417D01*
X0299524Y0114917D01*
X0299524Y0117917D01*
X0300024Y0118417D01*
X0300024Y0121917D01*
X0300240Y0122248D01*
X0300524Y0122917D01*
X0305524Y0127917D01*
X0305524Y0136417D01*
X0302524Y0139417D01*
X0301524Y0139417D01*
X0300024Y0140917D01*
X0298024Y0140917D01*
X0297563Y0141264D01*
X0178665Y0105437D02*
X0178524Y0105417D01*
X0179524Y0076917D02*
X0179945Y0076564D01*
X0179274Y0044167D02*
X0182024Y0041417D01*
X0182024Y0038917D01*
X0182209Y0038508D01*
X0187524Y0025417D02*
X0188508Y0024728D01*
X0187524Y0025417D02*
X0181774Y0019667D01*
D31*
X0180524Y0024917D02*
X0176024Y0024917D01*
X0175909Y0024728D01*
X0175524Y0024917D01*
X0175024Y0025417D01*
X0175024Y0026917D01*
X0175524Y0027417D01*
X0175524Y0029417D01*
X0174524Y0030417D01*
X0174524Y0032417D01*
X0174179Y0032446D01*
X0168979Y0032446D02*
X0168979Y0024728D01*
X0168823Y0024728D01*
X0162524Y0031417D02*
X0158024Y0031417D01*
X0156024Y0033417D01*
X0156024Y0041917D01*
X0157524Y0043417D01*
X0158024Y0043417D01*
X0157524Y0043417D02*
X0154024Y0046917D01*
X0154024Y0049917D01*
X0153862Y0050319D01*
X0170524Y0055917D02*
X0174524Y0055917D01*
X0174945Y0055964D01*
X0189945Y0055964D02*
X0190024Y0055917D01*
X0192024Y0055917D01*
X0198024Y0049917D01*
X0199024Y0049917D01*
X0199925Y0049925D01*
X0199524Y0049917D01*
X0199524Y0046417D01*
X0193024Y0039917D01*
X0191524Y0039917D01*
X0191264Y0039846D01*
X0191524Y0040417D01*
X0190524Y0040417D01*
X0183524Y0033417D01*
X0183524Y0032917D01*
X0182524Y0031917D01*
X0182209Y0031421D01*
X0188664Y0032446D02*
X0188664Y0025417D01*
X0187524Y0025417D01*
X0195524Y0024917D02*
X0195594Y0024728D01*
X0195524Y0024917D02*
X0195524Y0028917D01*
X0194024Y0030417D01*
X0194024Y0032417D01*
X0193864Y0032446D01*
X0194524Y0032417D01*
X0197024Y0032417D01*
X0213024Y0048417D01*
X0213024Y0053417D01*
X0218024Y0058417D01*
X0218024Y0059917D01*
X0217642Y0060555D01*
X0218024Y0060417D01*
X0219524Y0060417D01*
X0223524Y0056417D01*
X0243524Y0049917D02*
X0243524Y0043917D01*
X0243862Y0043469D01*
X0239024Y0043417D02*
X0238862Y0043469D01*
X0239024Y0043417D02*
X0239024Y0031417D01*
X0235024Y0027417D01*
X0235024Y0023917D01*
X0234562Y0023823D01*
X0268823Y0022760D02*
X0269024Y0022917D01*
X0275791Y0022917D01*
X0285791Y0022917D02*
X0286024Y0022917D01*
X0288524Y0022917D01*
X0290024Y0021417D01*
X0291024Y0021417D01*
X0295524Y0025917D01*
X0297024Y0025917D01*
X0297169Y0026303D01*
X0286024Y0025917D02*
X0286024Y0022917D01*
X0286024Y0025917D02*
X0279024Y0032917D01*
X0279024Y0043417D01*
X0278862Y0043469D01*
X0283524Y0043917D02*
X0283862Y0043469D01*
X0283524Y0043917D02*
X0283524Y0049917D01*
X0288524Y0049917D02*
X0288524Y0043917D01*
X0288862Y0043469D01*
X0293524Y0043417D02*
X0293524Y0040917D01*
X0290024Y0037417D01*
X0293524Y0043417D02*
X0293862Y0043469D01*
X0184945Y0076564D02*
X0185024Y0076917D01*
X0187024Y0091417D02*
X0187484Y0091657D01*
X0209024Y0114417D02*
X0227024Y0096417D01*
X0232524Y0096417D01*
X0232996Y0096402D01*
X0235524Y0114417D02*
X0224524Y0125417D01*
X0224524Y0125917D01*
X0220524Y0129917D01*
X0220524Y0132917D01*
X0220791Y0132917D01*
X0230791Y0132917D02*
X0231024Y0132917D01*
X0231024Y0133917D01*
X0239024Y0141917D01*
X0239024Y0144917D01*
X0239295Y0145201D01*
X0219217Y0145594D02*
X0219024Y0145417D01*
X0219024Y0141917D01*
X0211024Y0133917D01*
X0211024Y0132917D01*
X0210791Y0132917D01*
X0200791Y0132917D02*
X0200524Y0132917D01*
X0200524Y0129917D01*
X0209024Y0121417D01*
X0209024Y0114417D01*
X0189383Y0113311D02*
X0189024Y0112917D01*
X0179024Y0112417D02*
X0178665Y0112524D01*
X0190524Y0132917D02*
X0190791Y0132917D01*
X0190524Y0132917D02*
X0190524Y0135917D01*
X0193024Y0138417D01*
X0193024Y0144917D01*
X0192839Y0145201D01*
X0240791Y0132917D02*
X0241024Y0132917D01*
X0241024Y0126417D01*
X0244024Y0123417D01*
X0244024Y0114417D01*
X0243862Y0114335D01*
X0238862Y0114335D02*
X0238524Y0114417D01*
X0235524Y0114417D01*
X0293524Y0114417D02*
X0293862Y0114335D01*
X0293524Y0114417D02*
X0293524Y0121917D01*
X0293154Y0122248D01*
X0293024Y0122417D01*
X0293024Y0129917D01*
X0293232Y0130240D01*
X0171579Y0039846D02*
X0171524Y0039417D01*
X0170024Y0039417D01*
X0162524Y0031917D01*
X0162524Y0031421D01*
X0162524Y0031417D01*
M02*
