G75*
%MOIN*%
%OFA0B0*%
%FSLAX25Y25*%
%IPPOS*%
%LPD*%
%AMOC8*
5,1,8,0,0,1.08239X$1,22.5*
%
%ADD10C,0.08200*%
%ADD11C,0.08200*%
%ADD12OC8,0.07400*%
%ADD13C,0.04800*%
D10*
X0023075Y0037643D02*
X0023075Y0045043D01*
X0033075Y0045043D02*
X0033075Y0037643D01*
X0177484Y0087957D02*
X0177484Y0095357D01*
X0187484Y0095357D02*
X0187484Y0087957D01*
D11*
X0189383Y0113311D03*
X0200783Y0113311D03*
X0157213Y0130002D03*
X0131613Y0130002D03*
X0131613Y0147802D03*
X0157213Y0147802D03*
X0257614Y0145831D03*
X0258614Y0135831D03*
X0257614Y0125831D03*
X0234562Y0023823D03*
X0223162Y0023823D03*
D12*
X0275791Y0022917D03*
X0285791Y0022917D03*
X0240791Y0132917D03*
X0230791Y0132917D03*
X0220791Y0132917D03*
X0210791Y0132917D03*
X0200791Y0132917D03*
X0190791Y0132917D03*
D13*
X0246776Y0101894D03*
X0223524Y0056417D03*
X0243524Y0049917D03*
X0283524Y0049917D03*
X0288524Y0049917D03*
X0290024Y0037417D03*
X0250713Y0021579D03*
X0180524Y0024917D03*
X0158024Y0043417D03*
X0179453Y0049531D03*
X0170524Y0055917D03*
X0118035Y0037720D03*
X0094020Y0119610D03*
M02*
